<svg width="121" height="121" viewBox="0 0 121 121" fill="none" xmlns="http://www.w3.org/2000/svg">
<path d="M30.9214 107.283L31.342 106.565L34.2995 108.298L33.8788 109.016L30.9214 107.283ZM32.0988 109.759L31.1635 109.211L34.3539 103.767C34.4625 103.581 34.5158 103.425 34.5138 103.297C34.5118 103.169 34.4742 103.063 34.401 102.979C34.3277 102.896 34.2389 102.823 34.1344 102.762C34.0569 102.716 33.9721 102.676 33.8799 102.64C33.7824 102.605 33.7088 102.58 33.659 102.565L34.1013 101.798C34.1893 101.818 34.2998 101.854 34.433 101.905C34.5648 101.95 34.7149 102.022 34.8835 102.121C35.1126 102.255 35.2966 102.424 35.4354 102.628C35.5742 102.831 35.6387 103.073 35.6288 103.352C35.6137 103.633 35.4994 103.956 35.2862 104.32L32.0988 109.759Z" fill="#FECB49"/>
<path d="M23.0102 101.318L23.5517 100.686L26.154 102.917L25.6124 103.549L23.0102 101.318ZM23.7286 103.963L22.9057 103.258L27.0132 98.4671C27.153 98.304 27.2333 98.1593 27.2541 98.033C27.2749 97.9068 27.2567 97.796 27.1995 97.7006C27.1423 97.6053 27.0678 97.5182 26.9758 97.4394C26.9076 97.3809 26.8314 97.3258 26.7471 97.2741C26.6572 97.2228 26.5893 97.1851 26.5431 97.161L27.1145 96.4855C27.1976 96.5206 27.3001 96.5751 27.4221 96.6488C27.5437 96.7171 27.6786 96.8148 27.8269 96.9419C28.0285 97.1148 28.1796 97.3137 28.2799 97.5387C28.3803 97.7637 28.4008 98.0128 28.3415 98.2861C28.2766 98.5598 28.1069 98.8568 27.8323 99.1771L23.7286 103.963Z" fill="#FECB49"/>
<path d="M21.3479 89.9994C21.6162 90.3498 21.8007 90.7129 21.9014 91.0884C21.9965 91.4633 22.0139 91.8362 21.9536 92.2071C21.8908 92.5749 21.7522 92.9271 21.5376 93.2637C21.3229 93.6002 21.0389 93.9038 20.6853 94.1746L20.4899 94.3242C20.0805 94.6377 19.6698 94.8563 19.2577 94.9799C18.8426 95.1059 18.4438 95.1506 18.0614 95.1138C17.6789 95.077 17.3294 94.9707 17.0128 94.7949C16.6962 94.6192 16.4298 94.3902 16.2137 94.108C15.9382 93.7482 15.7628 93.3906 15.6873 93.0351C15.6095 92.6764 15.6181 92.3279 15.7132 91.9894C15.8051 91.6533 15.9707 91.3298 16.2098 91.0188C16.4457 90.7102 16.7405 90.4205 17.0941 90.1497L17.4802 89.8541L20.3586 93.613L19.6561 94.1509L17.4368 91.2526L17.3716 91.3025C17.1578 91.4859 16.9764 91.6987 16.8272 91.9408C16.6757 92.1798 16.597 92.4369 16.5912 92.7119C16.5853 92.987 16.6952 93.2719 16.9208 93.5665C17.0704 93.7619 17.25 93.9097 17.4597 94.01C17.6662 94.1126 17.8952 94.1611 18.1467 94.1554C18.3982 94.1498 18.6652 94.0905 18.9477 93.9775C19.2302 93.8645 19.5234 93.6916 19.8273 93.4589L20.0227 93.3093C20.2615 93.1264 20.4614 92.9217 20.6224 92.6951C20.778 92.4677 20.8862 92.2299 20.947 91.9816C21.0054 91.7302 21.0095 91.4786 20.9593 91.2268C20.9068 90.9718 20.7903 90.7265 20.6098 90.4908C20.377 90.1868 20.1179 89.9769 19.8323 89.861C19.5468 89.7451 19.2396 89.6876 18.9106 89.6886L18.9257 88.8505C19.1732 88.8332 19.4355 88.8513 19.7126 88.9047C19.9897 88.9582 20.2686 89.0718 20.5493 89.2456C20.8276 89.4163 21.0938 89.6675 21.3479 89.9994Z" fill="#FECB49"/>
<path d="M8.06086 75.3192L13.0223 74.2275L13.2565 75.2919L7.06473 76.6543L6.84312 75.6471L8.06086 75.3192ZM9.73962 75.1778L9.83074 75.6737C9.40643 75.7631 9.00323 75.7938 8.62111 75.7659C8.23518 75.7388 7.88561 75.6497 7.57239 75.4987C7.25917 75.3476 6.99566 75.1316 6.78186 74.8507C6.56424 74.5706 6.4101 74.2245 6.31944 73.8125C6.25564 73.5226 6.23885 73.2463 6.26905 72.9837C6.29544 72.7219 6.37666 72.482 6.51269 72.2641C6.64873 72.0462 6.84317 71.8574 7.09602 71.6978C7.34888 71.5382 7.66987 71.4155 8.059 71.3299L12.1849 70.422L12.4179 71.4807L8.34345 72.3772C8.01917 72.4486 7.77192 72.561 7.6017 72.7144C7.43064 72.8641 7.32307 73.0477 7.27897 73.2654C7.23107 73.4839 7.23649 73.7267 7.29525 73.9938C7.36409 74.3066 7.47691 74.5557 7.63371 74.7412C7.79051 74.9267 7.98005 75.061 8.20232 75.1441C8.42458 75.2272 8.6679 75.2696 8.93229 75.2714C9.19201 75.2703 9.46112 75.2391 9.73962 75.1778ZM8.27325 71.2948L8.64684 71.9565C8.30647 72.0274 7.96811 72.0438 7.63178 72.0059C7.29461 71.9641 6.98128 71.867 6.69179 71.7147C6.40146 71.5586 6.15214 71.3435 5.94383 71.0694C5.7317 70.7961 5.58241 70.463 5.49595 70.07C5.42292 69.7381 5.40215 69.4347 5.43365 69.1598C5.46432 68.8811 5.5519 68.6338 5.6964 68.418C5.83625 68.1993 6.03726 68.013 6.29942 67.8594C6.56159 67.7057 6.88723 67.586 7.27636 67.5004L11.345 66.6051L11.5792 67.6695L7.49912 68.5673C7.15196 68.6437 6.89517 68.7582 6.72877 68.9108C6.55771 69.0604 6.45585 69.2428 6.4232 69.458C6.3859 69.6702 6.39705 69.9117 6.45665 70.1826C6.50785 70.4153 6.59324 70.6125 6.71281 70.7742C6.83238 70.9359 6.97617 71.0622 7.14419 71.1532C7.30839 71.2451 7.48728 71.3037 7.68085 71.3291C7.87359 71.3507 8.07105 71.3392 8.27325 71.2948Z" fill="#FECB49"/>
<path d="M10.1776 56.0054L6.9201 55.805C6.67057 55.7896 6.45106 55.827 6.26158 55.9171C6.06844 56.003 5.91506 56.1423 5.80146 56.3349C5.68785 56.5275 5.62205 56.77 5.60406 57.0625C5.58727 57.3354 5.6193 57.578 5.70016 57.7904C5.78126 57.9989 5.89424 58.1663 6.0391 58.2927C6.1842 58.4151 6.34447 58.4817 6.51992 58.4925L6.45335 59.5744C6.22722 59.5605 6.00663 59.4882 5.79159 59.3576C5.57655 59.227 5.38608 59.047 5.22016 58.8176C5.05059 58.5841 4.92264 58.3101 4.83632 57.9956C4.74635 57.677 4.71311 57.3266 4.73662 56.9445C4.76493 56.4844 4.86785 56.0838 5.0454 55.7425C5.22318 55.3973 5.4761 55.1349 5.80414 54.9555C6.12853 54.772 6.5266 54.6947 6.99837 54.7237L9.94592 54.9051C10.1565 54.9181 10.3817 54.9143 10.6217 54.8939C10.8619 54.8695 11.0701 54.8256 11.2462 54.762L11.3398 54.7678L11.2703 55.8965C11.1422 55.9434 10.9739 55.9761 10.7653 55.9946C10.5529 56.0128 10.357 56.0164 10.1776 56.0054ZM7.43457 55.6488L8.19557 55.6838L8.12828 56.7775C8.10933 57.0855 8.11776 57.3619 8.15357 57.6068C8.18549 57.8514 8.24514 58.0586 8.33254 58.2283C8.41993 58.3981 8.53507 58.5304 8.67795 58.6253C8.81693 58.7199 8.98389 58.7732 9.17884 58.7852C9.37768 58.7975 9.56174 58.7638 9.73101 58.6842C9.90028 58.6046 10.0392 58.4781 10.1477 58.3048C10.2525 58.1273 10.3131 57.906 10.3294 57.6409C10.3498 57.3094 10.2976 57.0127 10.1728 56.7506C10.0481 56.4886 9.88889 56.2772 9.69526 56.1166C9.50188 55.9521 9.31002 55.8581 9.11969 55.8346L9.66862 55.4046C9.83069 55.442 10.0074 55.5272 10.1988 55.6603C10.3902 55.7934 10.5713 55.967 10.7421 56.181C10.9092 56.3909 11.0447 56.638 11.1485 56.9222C11.2487 57.2023 11.2882 57.5139 11.2671 57.857C11.2407 58.2859 11.1338 58.657 10.9462 58.9703C10.7589 59.2797 10.5193 59.5154 10.2276 59.6775C9.93217 59.8354 9.60902 59.9036 9.25812 59.882C8.91891 59.8612 8.62473 59.7765 8.37556 59.6281C8.12249 59.4795 7.91786 59.2751 7.76166 59.0151C7.60156 58.7547 7.48747 58.4464 7.41939 58.0899C7.3513 57.7335 7.33058 57.3389 7.3572 56.9062L7.43457 55.6488Z" fill="#FECB49"/>
<path d="M16.0105 45.1002L8.78902 42.8682L7.6523 42.4187L7.94645 41.467L16.3324 44.059L16.0105 45.1002ZM9.46245 47.5349L9.34489 47.4986C8.88211 47.3556 8.47898 47.1717 8.1355 46.9469C7.78828 46.721 7.51075 46.4615 7.30291 46.1683C7.09506 45.8751 6.96393 45.5586 6.90951 45.2188C6.85251 44.8741 6.88284 44.5114 7.0005 44.1307C7.11815 43.75 7.28857 43.4368 7.51174 43.1909C7.73234 42.9402 8.00067 42.7533 8.31674 42.6302C8.63023 42.5022 8.9827 42.4333 9.37416 42.4235C9.76562 42.4136 10.1922 42.4555 10.6539 42.5492L11.1689 42.7084C11.6003 42.8867 11.9749 43.0903 12.2925 43.3194C12.6101 43.5484 12.8622 43.8041 13.0488 44.0867C13.2366 44.3655 13.3521 44.6731 13.3953 45.0095C13.436 45.3409 13.3969 45.6989 13.2781 46.0833C13.1627 46.4565 12.9824 46.7687 12.7371 47.02C12.493 47.2675 12.2005 47.4531 11.8597 47.5767C11.5201 47.6966 11.1464 47.7549 10.7386 47.7515C10.3282 47.7432 9.90283 47.671 9.46245 47.5349ZM9.66672 46.4573L9.78428 46.4937C10.0866 46.5871 10.3819 46.6436 10.6702 46.6632C10.9548 46.6817 11.2199 46.6573 11.4655 46.5902C11.7123 46.5192 11.9266 46.4015 12.1083 46.2369C12.2874 46.0674 12.4202 45.8427 12.5068 45.5628C12.6129 45.2194 12.6265 44.9108 12.5476 44.637C12.4698 44.3595 12.331 44.1142 12.1311 43.9011C11.9274 43.6869 11.6972 43.4992 11.4404 43.3381L10.0912 42.9211C9.87328 42.8987 9.65342 42.9023 9.43167 42.9319C9.21108 42.9577 9.00293 43.0161 8.80724 43.1069C8.60781 43.1965 8.43274 43.3264 8.28204 43.4965C8.12876 43.6617 8.01174 43.875 7.93099 44.1362C7.84333 44.4198 7.82749 44.6827 7.88347 44.9249C7.93945 45.1671 8.05118 45.3877 8.21864 45.5866C8.38353 45.7807 8.59053 45.951 8.83963 46.0974C9.08872 46.2439 9.36442 46.3639 9.66672 46.4573Z" fill="#FECB49"/>
<path d="M17.4067 33.1769L13.2206 30.6785L13.7791 29.7426L19.2231 32.9918L18.6916 33.8823L17.4067 33.1769ZM16.3646 32.3161L16.5858 31.9227C16.9481 32.1389 17.2605 32.3777 17.523 32.639C17.7842 32.895 17.9771 33.1739 18.1018 33.4757C18.2264 33.7776 18.2714 34.1024 18.2367 34.4501C18.1986 34.7959 18.0635 35.1633 17.8313 35.5524C17.6731 35.8174 17.4894 36.0376 17.2801 36.2129C17.0729 36.3849 16.8417 36.5017 16.5866 36.5632C16.3315 36.6248 16.0488 36.6221 15.7384 36.5551C15.4301 36.4849 15.0948 36.3416 14.7326 36.1254L11.2206 34.0294L11.7762 33.0986L15.2982 35.2006C15.543 35.3467 15.762 35.441 15.955 35.4834C16.1467 35.5205 16.3175 35.5201 16.4675 35.4822C16.6161 35.439 16.7439 35.3697 16.8509 35.2744C16.9598 35.1756 17.0524 35.0625 17.1284 34.9351C17.3647 34.5393 17.4764 34.1806 17.4636 33.8591C17.4474 33.5355 17.3402 33.2464 17.142 32.9916C16.9424 32.7315 16.6833 32.5063 16.3646 32.3161Z" fill="#FECB49"/>
<path d="M25.2396 25.8233C24.9303 26.1382 24.5968 26.3719 24.239 26.5243C23.8813 26.6711 23.5145 26.7407 23.1388 26.7331C22.7658 26.7226 22.3976 26.6348 22.0343 26.4695C21.6709 26.3043 21.3304 26.0657 21.0127 25.7536L20.8371 25.5812C20.4693 25.2199 20.1952 24.8439 20.0149 24.4533C19.8318 24.0599 19.7316 23.6714 19.7144 23.2876C19.6971 22.9038 19.7532 22.5428 19.8828 22.2046C20.0123 21.8665 20.2017 21.5706 20.4507 21.317C20.7682 20.9937 21.0977 20.7698 21.4391 20.6452C21.7832 20.5178 22.1295 20.4774 22.478 20.5239C22.8237 20.5678 23.1673 20.6862 23.5088 20.8793C23.8475 21.0696 24.1757 21.3208 24.4934 21.6328L24.8403 21.9736L21.5229 25.3513L20.8916 24.7313L23.4495 22.127L23.391 22.0695C23.1794 21.8836 22.9433 21.7338 22.6826 21.6201C22.4247 21.5036 22.1591 21.4618 21.8859 21.4947C21.6128 21.5275 21.3462 21.6763 21.0861 21.9411C20.9137 22.1166 20.7926 22.3152 20.7227 22.5368C20.6501 22.7557 20.6343 22.9893 20.6752 23.2375C20.7161 23.4857 20.8123 23.7417 20.9638 24.0056C21.1154 24.2694 21.3277 24.5354 21.6008 24.8036L21.7764 24.9761C21.991 25.1869 22.2218 25.356 22.4687 25.4836C22.7157 25.6057 22.9663 25.6794 23.2207 25.7048C23.4778 25.7273 23.7275 25.6961 23.9698 25.611C24.2148 25.5232 24.4414 25.3734 24.6494 25.1616C24.9176 24.8884 25.0891 24.6024 25.1638 24.3034C25.2384 24.0044 25.2522 23.6921 25.205 23.3666L26.0369 23.2638C26.0888 23.5065 26.1078 23.7687 26.0937 24.0506C26.0797 24.3324 26.0064 24.6245 25.8737 24.9268C25.7438 25.2263 25.5325 25.5251 25.2396 25.8233Z" fill="#FECB49"/>
<path d="M30.8049 13.0959L31.2649 13.7891L28.4088 15.6844L27.9488 14.9911L30.8049 13.0959ZM28.0634 13.0656L28.9666 12.4663L32.4558 17.7244C32.5746 17.9034 32.6919 18.0202 32.8077 18.0746C32.9235 18.129 33.0351 18.1417 33.1424 18.1127C33.2497 18.0836 33.3538 18.0357 33.4547 17.9687C33.5296 17.919 33.6034 17.8607 33.6761 17.7937C33.75 17.7212 33.8048 17.6661 33.8406 17.6283L34.3347 18.3622C34.2782 18.4325 34.1979 18.5163 34.0936 18.6136C33.9948 18.712 33.8641 18.8152 33.7013 18.9232C33.48 19.07 33.2474 19.1611 33.0036 19.1963C32.7597 19.2315 32.5145 19.1833 32.2677 19.0517C32.0221 18.9147 31.7826 18.6704 31.5494 18.3189L28.0634 13.0656Z" fill="#FECB49"/>
<path d="M39.6399 8.60976L39.9694 9.37378L36.8218 10.7311L36.4923 9.96704L39.6399 8.60976ZM36.9475 8.0926L37.9429 7.66337L40.4417 13.4581C40.5267 13.6554 40.6214 13.7911 40.7257 13.8652C40.83 13.9394 40.9375 13.9717 41.0483 13.9622C41.1591 13.9528 41.27 13.924 41.3812 13.8761C41.4637 13.8405 41.5467 13.7962 41.6302 13.7432C41.7157 13.685 41.7795 13.6405 41.8215 13.6097L42.1772 14.4198C42.1091 14.4789 42.0152 14.5471 41.8953 14.6243C41.7806 14.7036 41.6336 14.7818 41.4542 14.8592C41.2103 14.9644 40.9652 15.0126 40.719 15.0039C40.4728 14.9953 40.24 14.9042 40.0206 14.7308C39.8032 14.5523 39.611 14.2693 39.444 13.882L36.9475 8.0926Z" fill="#FECB49"/>
<path d="M50.5375 12.0895C50.1048 12.1766 49.6976 12.1829 49.316 12.1082C48.9375 12.029 48.5949 11.8808 48.2882 11.6636C47.9853 11.4457 47.7299 11.1663 47.5219 10.8257C47.3139 10.485 47.1659 10.0964 47.0781 9.65987L47.0295 9.41861C46.9278 8.91312 46.9119 8.44813 46.9819 8.02364C47.0511 7.59531 47.1862 7.21747 47.3873 6.89012C47.5884 6.56276 47.8374 6.29548 48.1344 6.08828C48.4314 5.88108 48.7541 5.74242 49.1026 5.67229C49.5468 5.58289 49.9452 5.58241 50.2977 5.67085C50.654 5.75852 50.9633 5.91941 51.2256 6.15351C51.4871 6.38379 51.705 6.67464 51.8794 7.02606C52.0529 7.37365 52.1836 7.76572 52.2715 8.20228L52.3674 8.67905L47.7261 9.61312L47.5515 8.74575L51.1302 8.02554L51.114 7.94512C51.0432 7.67248 50.9318 7.41598 50.7798 7.17562C50.6317 6.93448 50.4353 6.75086 50.1908 6.62475C49.9463 6.49864 49.6421 6.47219 49.2783 6.54541C49.0371 6.59396 48.8254 6.69036 48.6432 6.8346C48.4603 6.97501 48.3161 7.15943 48.2107 7.38784C48.1052 7.61626 48.0412 7.88217 48.0186 8.18556C47.9959 8.48896 48.0224 8.8283 48.0979 9.20359L48.1465 9.44484C48.2058 9.73971 48.3019 10.0093 48.4347 10.2535C48.5706 10.4931 48.7367 10.6948 48.933 10.8585C49.1332 11.0214 49.3574 11.1357 49.6057 11.2012C49.8578 11.2661 50.1294 11.2692 50.4204 11.2106C50.7957 11.1351 51.0981 10.9945 51.3277 10.7889C51.5573 10.5833 51.7439 10.3326 51.8876 10.0367L52.6338 10.4185C52.5406 10.6484 52.4091 10.8761 52.2393 11.1015C52.0695 11.327 51.8449 11.5276 51.5655 11.7033C51.2899 11.8783 50.9473 12.0071 50.5375 12.0895Z" fill="#FECB49"/>
<path d="M69.5623 6.60394L68.3631 11.5404L67.3041 11.2832L68.8007 5.1225L69.8028 5.36595L69.5623 6.60394ZM68.9518 8.1741L68.4663 8.03807C68.5724 7.61765 68.722 7.24195 68.9149 6.91096C69.1088 6.57617 69.3424 6.30128 69.6157 6.08629C69.8891 5.8713 70.1989 5.72949 70.5452 5.66087C70.8924 5.58844 71.271 5.60203 71.6809 5.70162C71.9694 5.7717 72.225 5.87801 72.4476 6.02053C72.6712 6.15926 72.851 6.3376 72.987 6.55555C73.123 6.7735 73.2071 7.03111 73.2394 7.32839C73.2717 7.62567 73.2408 7.96789 73.1468 8.35507L72.1495 12.4603L71.0961 12.2044L72.081 8.15042C72.1593 7.82777 72.167 7.55628 72.104 7.33595C72.0447 7.11654 71.927 6.93921 71.7508 6.80396C71.5756 6.66491 71.3551 6.5631 71.0894 6.49855C70.7781 6.42294 70.5047 6.41481 70.2692 6.47417C70.0337 6.53354 69.8298 6.6448 69.6575 6.80795C69.4852 6.97111 69.3402 7.17104 69.2224 7.40773C69.1093 7.64155 69.0191 7.89701 68.9518 8.1741ZM73.0842 8.56297L72.3256 8.60782C72.4115 8.27091 72.5453 7.95974 72.7272 7.6743C72.9129 7.38978 73.1378 7.15095 73.4018 6.95781C73.6696 6.7656 73.9724 6.63615 74.3101 6.56948C74.6488 6.499 75.0137 6.51126 75.4047 6.60624C75.7349 6.68647 76.0166 6.80112 76.2497 6.95021C76.4866 7.10022 76.6702 7.28754 76.8006 7.51216C76.9356 7.7339 77.0146 7.99629 77.0375 8.29931C77.0603 8.60233 77.0247 8.94743 76.9307 9.33461L75.9472 13.3829L74.8882 13.1256L75.8744 9.06594C75.9583 8.72052 75.9683 8.43954 75.9043 8.22301C75.845 8.0036 75.7259 7.83196 75.547 7.7081C75.3728 7.58135 75.1509 7.48525 74.8814 7.41977C74.6499 7.36352 74.4352 7.35358 74.2374 7.38996C74.0397 7.42633 73.863 7.49998 73.7074 7.61092C73.5527 7.71806 73.4215 7.853 73.3136 8.01573C73.2095 8.17938 73.1331 8.36179 73.0842 8.56297Z" fill="#FECB49"/>
<path d="M85.9819 16.9912L87.5932 14.1531C87.7166 13.9357 87.7795 13.7221 87.7818 13.5123C87.7895 13.301 87.7318 13.102 87.6087 12.9153C87.4855 12.7287 87.2966 12.563 87.0418 12.4184C86.804 12.2834 86.572 12.2055 86.3457 12.1848C86.1227 12.1661 85.9227 12.194 85.7456 12.2686C85.5719 12.3452 85.4416 12.4599 85.3548 12.6128L84.4122 12.0776C84.524 11.8806 84.6859 11.7142 84.8977 11.5784C85.1095 11.4426 85.3549 11.3506 85.6339 11.3023C85.9181 11.2526 86.2205 11.2581 86.5409 11.3187C86.8667 11.3779 87.196 11.502 87.5289 11.691C87.9298 11.9185 88.2445 12.187 88.4731 12.4965C88.705 12.8079 88.8296 13.1503 88.8466 13.5238C88.8689 13.8959 88.7634 14.2874 88.5301 14.6984L87.0721 17.2666C86.9679 17.45 86.8723 17.654 86.7853 17.8786C86.7016 18.1051 86.6496 18.3114 86.6293 18.4975L86.583 18.579L85.5996 18.0207C85.6137 17.885 85.6583 17.7194 85.7334 17.5239C85.8103 17.3251 85.8932 17.1475 85.9819 16.9912ZM87.5075 14.6839L87.1416 15.3521L86.1887 14.8111C85.9204 14.6587 85.6684 14.5448 85.4327 14.4694C85.1989 14.3906 84.9866 14.3532 84.7957 14.3571C84.6048 14.361 84.4354 14.4063 84.2874 14.493C84.1413 14.5762 84.02 14.7028 83.9236 14.8726C83.8252 15.0459 83.7746 15.226 83.7717 15.4131C83.7689 15.6001 83.8215 15.7804 83.9295 15.9541C84.0429 16.1262 84.2151 16.2779 84.4461 16.409C84.7348 16.573 85.0243 16.6565 85.3145 16.6595C85.6047 16.6626 85.8645 16.6124 86.0939 16.5091C86.3267 16.4077 86.4954 16.2766 86.6001 16.1159L86.7452 16.798C86.6404 16.9271 86.4862 17.0485 86.2825 17.1619C86.0789 17.2754 85.8434 17.3618 85.5761 17.4212C85.3141 17.4791 85.0327 17.4922 84.7317 17.4606C84.4361 17.4275 84.1388 17.3261 83.8398 17.1564C83.4662 16.9442 83.1798 16.6851 82.9808 16.379C82.7852 16.0747 82.6787 15.756 82.6613 15.4227C82.6492 15.0879 82.7299 14.7677 82.9035 14.462C83.0713 14.1664 83.2766 13.9393 83.5194 13.7807C83.7641 13.6187 84.0376 13.5247 84.3398 13.4986C84.644 13.4692 84.9711 13.5022 85.3212 13.5976C85.6713 13.6931 86.0349 13.8478 86.412 14.0619L87.5075 14.6839Z" fill="#FECB49"/>
<path d="M93.2155 27.0228L98.3935 21.5164L99.2967 20.6928L100.022 21.3751L94.0094 27.7694L93.2155 27.0228ZM93.9055 20.0709L93.9897 19.9812C94.3216 19.6284 94.6639 19.347 95.0167 19.1372C95.3722 18.9246 95.7272 18.7893 96.0819 18.7314C96.4367 18.6735 96.7786 18.6948 97.1078 18.7952C97.4425 18.8955 97.7549 19.0821 98.0452 19.355C98.3355 19.628 98.542 19.9187 98.6648 20.2272C98.7931 20.5355 98.8431 20.8587 98.8148 21.1967C98.792 21.5345 98.699 21.8814 98.5359 22.2374C98.3727 22.5934 98.1476 22.9582 97.8607 23.3318L97.4914 23.7245C97.1416 24.0337 96.7941 24.2806 96.4489 24.4653C96.1036 24.65 95.763 24.7641 95.4272 24.8076C95.0943 24.8538 94.7672 24.8224 94.4461 24.7134C94.1305 24.6043 93.8261 24.4119 93.533 24.1363C93.2484 23.8687 93.0472 23.5695 92.9292 23.2388C92.8141 22.9107 92.7759 22.5664 92.8146 22.206C92.8561 21.8482 92.968 21.4869 93.1502 21.1221C93.3379 20.7571 93.5897 20.4067 93.9055 20.0709ZM94.7837 20.7278L94.6994 20.8175C94.4826 21.048 94.3021 21.2884 94.1578 21.5388C94.0162 21.7863 93.9216 22.0352 93.874 22.2854C93.8293 22.5382 93.8409 22.7824 93.909 23.018C93.9825 23.2534 94.126 23.4714 94.3395 23.6721C94.6013 23.9183 94.8725 24.0661 95.1531 24.1155C95.4366 24.1676 95.7179 24.1507 95.9972 24.0647C96.2791 23.9759 96.5488 23.8515 96.8064 23.6916L97.7738 22.6629C97.8897 22.477 97.983 22.2779 98.0539 22.0657C98.1276 21.8562 98.1667 21.6436 98.1711 21.4279C98.1782 21.2093 98.1384 20.995 98.0518 20.7849C97.9708 20.5746 97.8306 20.3758 97.6314 20.1885C97.4152 19.9851 97.1859 19.8554 96.9438 19.7992C96.7017 19.7431 96.4544 19.7466 96.2021 19.8096C95.9554 19.8725 95.7114 19.9836 95.4704 20.143C95.2293 20.3024 95.0004 20.4973 94.7837 20.7278Z" fill="#FECB49"/>
<path d="M103.313 33.5156L107.397 30.853L107.992 31.7659L102.681 35.2286L102.115 34.3599L103.313 33.5156ZM104.544 32.9578L104.8 33.3293C104.447 33.5597 104.095 33.7354 103.745 33.8565C103.4 33.9786 103.065 34.0294 102.739 34.0087C102.413 33.9881 102.102 33.8858 101.805 33.7018C101.511 33.5157 101.24 33.2329 100.993 32.8533C100.824 32.5948 100.707 32.333 100.641 32.068C100.578 31.8062 100.575 31.5473 100.631 31.2911C100.688 31.0349 100.815 30.7821 101.011 30.5327C101.21 30.2866 101.486 30.0484 101.839 29.818L105.265 27.5841L105.857 28.4921L102.422 30.7324C102.183 30.8881 102.002 31.0434 101.879 31.1981C101.761 31.354 101.687 31.5077 101.655 31.659C101.628 31.8115 101.634 31.9568 101.673 32.0948C101.714 32.236 101.775 32.3688 101.856 32.4932C102.108 32.8793 102.381 33.1372 102.675 33.267C102.973 33.3946 103.28 33.4254 103.596 33.3593C103.917 33.2943 104.233 33.1604 104.544 32.9578Z" fill="#FECB49"/>
<path d="M106.477 43.7833C106.33 43.3671 106.267 42.9649 106.287 42.5766C106.312 42.1907 106.411 41.8306 106.583 41.4965C106.756 41.166 106.997 40.8739 107.305 40.6201C107.613 40.3663 107.977 40.1652 108.397 40.0169L108.629 39.935C109.115 39.7633 109.573 39.6823 110.003 39.6919C110.437 39.7003 110.83 39.7811 111.183 39.9342C111.535 40.0873 111.835 40.2963 112.081 40.5613C112.328 40.8262 112.511 41.1263 112.629 41.4615C112.78 41.8887 112.837 42.2831 112.799 42.6445C112.762 43.0096 112.646 43.3385 112.451 43.631C112.26 43.9223 112.002 44.1789 111.679 44.4008C111.359 44.6215 110.989 44.8059 110.569 44.9542L110.111 45.1162L108.534 40.652L109.368 40.3574L110.584 43.7994L110.661 43.7721C110.921 43.6637 111.16 43.5174 111.376 43.3332C111.594 43.1527 111.749 42.9325 111.839 42.6727C111.93 42.4128 111.913 42.108 111.789 41.7581C111.708 41.526 111.582 41.3299 111.414 41.1699C111.249 41.0085 111.046 40.8916 110.805 40.8193C110.565 40.747 110.292 40.7209 109.989 40.7411C109.685 40.7613 109.353 40.8352 108.992 40.9626L108.76 41.0446C108.476 41.1448 108.223 41.2777 108 41.4435C107.782 41.6117 107.605 41.8045 107.471 42.0219C107.337 42.2429 107.256 42.4809 107.226 42.736C107.197 42.9947 107.232 43.264 107.331 43.5439C107.458 43.9049 107.64 44.1846 107.876 44.383C108.112 44.5815 108.386 44.731 108.699 44.8317L108.426 45.6242C108.185 45.5642 107.941 45.466 107.694 45.3295C107.447 45.1931 107.217 44.9989 107.004 44.7469C106.792 44.4986 106.616 44.1774 106.477 43.7833Z" fill="#FECB49"/>
<path d="M115.465 54.3742L114.64 54.4828L114.193 51.0844L115.017 50.9758L115.465 54.3742ZM116.697 51.9248L116.838 52.9995L110.582 53.8235C110.369 53.8516 110.212 53.9057 110.113 53.9858C110.013 54.0659 109.953 54.1606 109.931 54.2697C109.91 54.3789 109.908 54.4935 109.924 54.6135C109.935 54.7026 109.955 54.7945 109.983 54.8893C110.016 54.9875 110.042 55.0609 110.06 55.1098L109.183 55.2311C109.145 55.1495 109.105 55.0405 109.063 54.9041C109.019 54.7721 108.983 54.6093 108.958 54.4157C108.923 54.1523 108.943 53.9034 109.019 53.6689C109.094 53.4344 109.246 53.2352 109.472 53.0714C109.703 52.9109 110.028 52.8032 110.446 52.7481L116.697 51.9248Z" fill="#FECB49"/>
<path d="M115.613 64.2821L114.781 64.2423L114.945 60.8185L115.776 60.8582L115.613 64.2821ZM117.26 62.0907L117.208 63.1734L110.905 62.872C110.69 62.8618 110.527 62.8872 110.414 62.9483C110.302 63.0094 110.226 63.0918 110.186 63.1955C110.145 63.2991 110.122 63.4114 110.117 63.5324C110.112 63.6221 110.116 63.7162 110.127 63.8144C110.141 63.9168 110.153 63.9937 110.163 64.0449L109.279 64.0085C109.255 63.9214 109.235 63.807 109.219 63.6654C109.198 63.5276 109.192 63.3611 109.201 63.166C109.214 62.9007 109.279 62.6593 109.394 62.442C109.51 62.2246 109.695 62.0555 109.947 61.9346C110.203 61.8177 110.541 61.7694 110.963 61.7896L117.26 62.0907Z" fill="#FECB49"/>
<path d="M107.699 72.5424C107.811 72.1154 107.984 71.7469 108.219 71.4369C108.456 71.1317 108.74 70.889 109.07 70.7089C109.398 70.5326 109.762 70.4259 110.159 70.3887C110.556 70.3515 110.971 70.3894 111.401 70.5023L111.639 70.5647C112.138 70.6954 112.563 70.8854 112.913 71.1348C113.268 71.3851 113.548 71.6726 113.753 71.997C113.959 72.3215 114.09 72.6626 114.146 73.0205C114.201 73.3783 114.184 73.7291 114.094 74.073C113.979 74.5113 113.804 74.8694 113.57 75.1472C113.335 75.4287 113.054 75.6359 112.729 75.7686C112.407 75.9024 112.05 75.9703 111.658 75.9725C111.269 75.9757 110.86 75.9209 110.429 75.808L109.958 75.6847L111.159 71.105L112.014 71.3293L111.089 74.8604L111.168 74.8812C111.444 74.9374 111.724 74.95 112.006 74.9191C112.288 74.892 112.539 74.7963 112.76 74.632C112.981 74.4678 113.138 74.2062 113.232 73.8472C113.295 73.6091 113.301 73.3766 113.252 73.1496C113.206 72.9236 113.103 72.713 112.945 72.518C112.786 72.3229 112.575 72.1485 112.312 71.9949C112.05 71.8413 111.733 71.716 111.363 71.6189L111.125 71.5565C110.834 71.4803 110.55 71.4482 110.272 71.4602C109.997 71.4769 109.743 71.5375 109.51 71.642C109.275 71.7502 109.074 71.9014 108.906 72.0956C108.737 72.2936 108.615 72.5362 108.54 72.8234C108.443 73.1937 108.436 73.5271 108.52 73.8237C108.604 74.1202 108.747 74.398 108.95 74.6571L108.279 75.1597C108.113 74.975 107.966 74.7568 107.838 74.5052C107.711 74.2536 107.629 73.9637 107.594 73.6355C107.558 73.3111 107.593 72.9467 107.699 72.5424Z" fill="#FECB49"/>
<path d="M104.267 92.0431L100.359 88.7968L101.056 87.9585L105.932 92.0098L105.273 92.803L104.267 92.0431ZM103.124 90.8047L103.46 90.4283C103.791 90.7084 104.063 91.0079 104.275 91.3266C104.491 91.6479 104.635 91.9785 104.708 92.3185C104.781 92.6585 104.773 92.9991 104.682 93.3403C104.595 93.6841 104.416 94.0182 104.146 94.3427C103.957 94.571 103.749 94.7539 103.523 94.8913C103.3 95.0312 103.061 95.1143 102.805 95.1407C102.55 95.1671 102.282 95.1295 102 95.0279C101.719 94.9263 101.425 94.7482 101.119 94.4936L97.8692 91.794L98.5619 90.9602L101.771 93.6261C102.026 93.8383 102.267 93.9644 102.492 94.0046C102.716 94.0478 102.927 94.0199 103.125 93.9211C103.327 93.8248 103.516 93.6715 103.69 93.4611C103.895 93.2147 104.023 92.9727 104.073 92.7351C104.123 92.4974 104.112 92.2654 104.042 92.0389C103.971 91.8125 103.855 91.5943 103.694 91.3845C103.534 91.1802 103.344 90.9869 103.124 90.8047ZM100.959 94.346L101.252 93.6449C101.517 93.87 101.738 94.127 101.915 94.4158C102.089 94.7077 102.204 95.0146 102.262 95.3366C102.317 95.6616 102.3 95.9905 102.212 96.3232C102.126 96.6584 101.955 96.9808 101.698 97.2903C101.48 97.5517 101.254 97.7543 101.017 97.8982C100.779 98.0451 100.53 98.1278 100.271 98.1462C100.012 98.1701 99.7416 98.1257 99.4593 98.0131C99.1771 97.9005 98.8827 97.7169 98.5762 97.4623L95.3718 94.8001L96.0682 93.9618L99.2817 96.6315C99.5551 96.8586 99.8031 96.991 100.026 97.0287C100.249 97.0719 100.455 97.0403 100.645 96.934C100.836 96.8332 101.02 96.6761 101.197 96.4628C101.349 96.2795 101.452 96.091 101.506 95.8974C101.561 95.7038 101.572 95.5127 101.541 95.3242C101.513 95.1382 101.449 94.961 101.35 94.7926C101.249 94.6272 101.119 94.4783 100.959 94.346Z" fill="#FECB49"/>
<path d="M87.7223 102.229L89.5639 104.924C89.705 105.13 89.8692 105.28 90.0567 105.375C90.2431 105.474 90.4472 105.51 90.669 105.481C90.8907 105.453 91.1226 105.356 91.3644 105.19C91.5902 105.036 91.7621 104.862 91.8801 104.668C91.9949 104.476 92.0577 104.284 92.0685 104.092C92.0761 103.902 92.0302 103.735 91.9311 103.59L92.826 102.978C92.9538 103.165 93.0322 103.383 93.0611 103.633C93.09 103.883 93.0648 104.144 92.9856 104.416C92.9054 104.693 92.7676 104.962 92.5724 105.224C92.3761 105.49 92.1199 105.732 91.8039 105.948C91.4233 106.208 91.0438 106.372 90.6654 106.442C90.2838 106.513 89.9214 106.475 89.5784 106.326C89.2344 106.183 88.929 105.916 88.6623 105.526L86.996 103.087C86.877 102.913 86.7357 102.738 86.5723 102.561C86.4056 102.386 86.2431 102.249 86.0848 102.149L86.0319 102.071L86.9656 101.433C87.0812 101.506 87.2104 101.618 87.353 101.772C87.4978 101.928 87.6209 102.081 87.7223 102.229ZM89.1248 104.613L88.6853 103.991L89.5899 103.373C89.8447 103.199 90.0577 103.022 90.229 102.844C90.4025 102.668 90.5294 102.494 90.6098 102.321C90.6901 102.148 90.7239 101.976 90.7111 101.805C90.7005 101.637 90.6401 101.472 90.5298 101.311C90.4174 101.146 90.2779 101.022 90.1111 100.937C89.9444 100.852 89.7593 100.82 89.5558 100.841C89.3513 100.867 89.1394 100.955 88.9201 101.105C88.646 101.293 88.4438 101.516 88.3135 101.775C88.1833 102.035 88.1142 102.29 88.1062 102.542C88.0951 102.795 88.1387 103.004 88.237 103.169L87.5606 103C87.4906 102.849 87.4494 102.657 87.4369 102.424C87.4245 102.191 87.4503 101.942 87.5144 101.676C87.5775 101.415 87.6894 101.156 87.85 100.9C88.0096 100.649 88.2314 100.426 88.5151 100.232C88.8699 99.9898 89.2285 99.8465 89.591 99.8022C89.9502 99.7601 90.2833 99.8045 90.5904 99.9353C90.8964 100.072 91.1486 100.285 91.347 100.575C91.5387 100.856 91.6525 101.14 91.6883 101.428C91.7264 101.719 91.6907 102.006 91.5813 102.289C91.474 102.575 91.3007 102.854 91.0611 103.127C90.8215 103.399 90.5228 103.658 90.1648 103.902L89.1248 104.613Z" fill="#FECB49"/>
<path d="M75.5325 104.319L78.2038 111.39L78.5469 112.563L77.615 112.915L74.513 104.704L75.5325 104.319ZM81.4743 107.993L81.5178 108.108C81.6889 108.561 81.7913 108.993 81.8247 109.402C81.8596 109.814 81.8251 110.193 81.7212 110.537C81.6174 110.881 81.448 111.179 81.2132 111.43C80.9761 111.687 80.6711 111.886 80.2984 112.027C79.9257 112.167 79.5738 112.225 79.2427 112.2C78.9094 112.18 78.5971 112.083 78.3059 111.909C78.0124 111.74 77.7417 111.504 77.4936 111.201C77.2455 110.898 77.0167 110.535 76.8072 110.113L76.6167 109.609C76.4926 109.159 76.4234 108.738 76.4092 108.347C76.395 107.956 76.4421 107.6 76.5506 107.279C76.6554 106.96 76.8273 106.68 77.0663 106.439C77.303 106.203 77.6096 106.015 77.986 105.872C78.3514 105.734 78.7085 105.685 79.0575 105.724C79.4028 105.765 79.7288 105.882 80.0356 106.075C80.3387 106.27 80.6141 106.529 80.8618 106.853C81.1072 107.182 81.3114 107.562 81.4743 107.993ZM80.4983 108.494L80.4548 108.378C80.3429 108.082 80.2063 107.815 80.0448 107.575C79.8846 107.339 79.7026 107.145 79.4988 106.992C79.2913 106.841 79.0668 106.744 78.8253 106.702C78.5816 106.664 78.3226 106.697 78.0486 106.801C77.7124 106.928 77.4605 107.107 77.2928 107.337C77.1214 107.569 77.013 107.829 76.9676 108.117C76.9235 108.41 76.9167 108.707 76.9471 109.008L77.4462 110.329C77.5623 110.515 77.7001 110.686 77.8596 110.843C78.0154 111.002 78.1892 111.13 78.3811 111.229C78.5742 111.331 78.7842 111.39 79.011 111.404C79.2356 111.424 79.4757 111.385 79.7315 111.289C80.0092 111.184 80.2265 111.035 80.3833 110.842C80.5401 110.649 80.6456 110.425 80.6999 110.171C80.7518 109.922 80.7592 109.654 80.7219 109.367C80.6846 109.081 80.6101 108.79 80.4983 108.494Z" fill="#FECB49"/>
<path d="M65.263 110.537L65.8607 115.375L64.7791 115.509L64.0018 109.216L65.0311 109.089L65.263 110.537ZM65.2233 111.888L64.777 111.955C64.7252 111.536 64.7219 111.143 64.767 110.775C64.8088 110.412 64.9105 110.088 65.0722 109.805C65.234 109.521 65.4628 109.286 65.7586 109.1C66.0549 108.918 66.4279 108.799 66.8776 108.743C67.1839 108.705 67.4705 108.715 67.7373 108.773C68.0003 108.831 68.2344 108.942 68.4396 109.105C68.6448 109.269 68.8163 109.494 68.9539 109.78C69.0877 110.066 69.1805 110.419 69.2322 110.838L69.7336 114.896L68.6578 115.029L68.155 110.959C68.12 110.676 68.06 110.445 67.975 110.267C67.8866 110.093 67.7814 109.958 67.6594 109.863C67.5341 109.772 67.4009 109.714 67.26 109.688C67.1151 109.662 66.9691 109.659 66.8218 109.677C66.3643 109.733 66.0126 109.865 65.7666 110.073C65.5212 110.284 65.3587 110.546 65.2793 110.859C65.1965 111.177 65.1778 111.519 65.2233 111.888Z" fill="#FECB49"/>
<path d="M54.6499 108.867C55.0884 108.918 55.4776 109.038 55.8175 109.227C56.153 109.419 56.4331 109.666 56.6577 109.967C56.8785 110.268 57.0351 110.613 57.1278 111.001C57.2204 111.389 57.2411 111.805 57.1898 112.247L57.1614 112.491C57.1021 113.004 56.9735 113.451 56.7759 113.833C56.5778 114.219 56.3325 114.536 56.0401 114.786C55.7478 115.035 55.4284 115.212 55.0819 115.318C54.7354 115.423 54.3856 115.455 54.0325 115.414C53.5824 115.362 53.2034 115.239 52.8955 115.046C52.5836 114.853 52.3391 114.604 52.162 114.301C51.9844 114.001 51.867 113.657 51.8097 113.269C51.752 112.885 51.7488 112.471 51.8001 112.029L51.8561 111.546L56.559 112.091L56.4571 112.97L52.831 112.55L52.8215 112.631C52.8047 112.912 52.8314 113.191 52.9017 113.466C52.9681 113.741 53.0981 113.977 53.2917 114.172C53.4854 114.368 53.7665 114.487 54.1351 114.529C54.3796 114.558 54.6107 114.531 54.8285 114.451C55.0458 114.373 55.2399 114.243 55.4108 114.058C55.5816 113.873 55.7247 113.64 55.8399 113.359C55.9551 113.077 56.0348 112.746 56.0788 112.366L56.1072 112.121C56.1418 111.823 56.1337 111.537 56.0828 111.263C56.0276 110.993 55.9319 110.75 55.7957 110.534C55.6557 110.317 55.4777 110.139 55.2619 110C55.0421 109.861 54.7847 109.774 54.4898 109.74C54.1096 109.695 53.7785 109.736 53.4967 109.86C53.2148 109.985 52.9599 110.166 52.7318 110.403L52.14 109.809C52.2997 109.619 52.4951 109.443 52.7262 109.281C52.9573 109.12 53.2329 108.998 53.5529 108.917C53.8691 108.836 54.2348 108.819 54.6499 108.867Z" fill="#FECB49"/>
<path d="M41.1869 112.288L41.4517 111.499L44.7011 112.59L44.4363 113.379L41.1869 112.288ZM42.846 114.471L41.8184 114.126L43.8271 108.143C43.8955 107.94 43.9156 107.776 43.8874 107.651C43.8593 107.526 43.8008 107.43 43.7121 107.363C43.6233 107.296 43.5215 107.243 43.4067 107.205C43.3215 107.176 43.2301 107.154 43.1326 107.138C43.0301 107.124 42.9529 107.114 42.901 107.109L43.1771 106.269C43.2673 106.27 43.3828 106.282 43.5235 106.305C43.6618 106.322 43.8236 106.362 44.0087 106.424C44.2605 106.509 44.4752 106.637 44.6527 106.807C44.8302 106.978 44.9427 107.202 44.9903 107.477C45.0329 107.755 44.9871 108.094 44.8528 108.494L42.846 114.471Z" fill="#FECB49"/>
</svg>
