<svg xmlns="http://www.w3.org/2000/svg" viewBox="0 0 323.25 323.27"><defs><style>.cls-1{font-size:44px;fill:#fff;font-family:Roboto-Regular, Roboto;}</style></defs><title>btn-contact_1</title><g id="Calque_2" data-name="Calque 2"><g id="Calque_1-2" data-name="Calque 1"><text class="cls-1" transform="matrix(0.77, -0.64, 0.64, 0.77, 71.52, 75.27)">C</text><text class="cls-1" transform="translate(92.19 57.78) rotate(-26.86)">O</text><text class="cls-1" transform="translate(117.62 44.61) rotate(-13.36)">N</text><text class="cls-1" transform="translate(146.68 37.86) rotate(-0.93)">T</text><text class="cls-1" transform="translate(169.82 37.07) rotate(10.3)">A</text><text class="cls-1" transform="matrix(0.92, 0.39, -0.39, 0.92, 196.57, 41.76)">C</text><text class="cls-1" transform="translate(221.08 52) rotate(34.56)">T</text><text class="cls-1" transform="translate(240.94 66.16) rotate(42.25)"> </text><text class="cls-1" transform="translate(248.73 72.22) rotate(50.8)">C</text><text class="cls-1" transform="translate(266.05 93.04) rotate(63.61)">O</text><text class="cls-1" transform="translate(279.02 118.58) rotate(77.11)">N</text><text class="cls-1" transform="translate(285.42 147.66) rotate(89.07)">T</text><text class="cls-1" transform="translate(286.13 170.84) rotate(100.77)">A</text><text class="cls-1" transform="matrix(-0.4, 0.92, -0.92, -0.4, 281.22, 197.56)">C</text><text class="cls-1" transform="translate(270.78 221.98) rotate(125.03)">T</text><text class="cls-1" transform="translate(256.47 241.71) rotate(132.71)"> </text><text class="cls-1" transform="translate(250.34 249.45) rotate(141.26)">C</text><text class="cls-1" transform="translate(229.38 266.61) rotate(154.08)">O</text><text class="cls-1" transform="translate(203.73 279.36) rotate(167.58)">N</text><text class="cls-1" transform="matrix(-1, -0.02, 0.02, -1, 174.66, 285.85)">T</text><text class="cls-1" transform="translate(151.43 286.05) rotate(-168.77)">A</text><text class="cls-1" transform="translate(124.74 280.92) rotate(-156.2)">C</text><text class="cls-1" transform="translate(100.41 270.29) rotate(-144.51)">T</text><text class="cls-1" transform="translate(80.78 255.81) rotate(-136.83)"> </text><text class="cls-1" transform="matrix(-0.62, -0.79, 0.79, -0.62, 73.09, 249.62)">C</text><text class="cls-1" transform="matrix(-0.43, -0.9, 0.9, -0.43, 56.11, 228.52)">O</text><text class="cls-1" transform="matrix(-0.21, -0.98, 0.98, -0.21, 43.57, 202.77)">N</text><text class="cls-1" transform="translate(37.43 173.68) rotate(-89.07)">T</text><text class="cls-1" transform="matrix(0.2, -0.98, 0.98, 0.2, 37.3, 150.42)">A</text><text class="cls-1" transform="translate(42.65 123.77) rotate(-65.73)">C</text><text class="cls-1" transform="matrix(0.59, -0.81, 0.81, 0.59, 53.48, 99.53)">T</text></g></g></svg>