<svg xmlns="http://www.w3.org/2000/svg" viewBox="0 0 311.29 311.29"><defs><style>.cls-1{font-size:37px;fill:#26baa4;font-family:Roboto-Regular, Roboto;}</style></defs><title>btn-maquette-clipboard</title><g id="Calque_2" data-name="Calque 2"><g id="Calque_1-2" data-name="Calque 1"><text class="cls-1" transform="translate(66.05 69.38) rotate(-41.64)">c</text><text class="cls-1" transform="matrix(0.81, -0.58, 0.58, 0.81, 80.17, 57.15)">l</text><text class="cls-1" transform="translate(87.12 52.19) rotate(-31.5)">i</text><text class="cls-1" transform="matrix(0.91, -0.42, 0.42, 0.91, 94.01, 47.53)">p</text><text class="cls-1" transform="matrix(0.96, -0.27, 0.27, 0.96, 111.89, 39.12)">b</text><text class="cls-1" transform="translate(130.9 33.66) rotate(-6.53)">o</text><text class="cls-1" transform="matrix(1, 0.04, -0.04, 1, 150.91, 31.33)">a</text><text class="cls-1" transform="translate(170.23 32.34) rotate(9.57)">r</text><text class="cls-1" transform="translate(181.85 33.97) rotate(16.94)">d</text><text class="cls-1" transform="matrix(0.92, 0.4, -0.4, 0.92, 201.01, 40.12)"> </text><text class="cls-1" transform="matrix(0.87, 0.5, -0.5, 0.87, 208.93, 43.23)">c</text><text class="cls-1" transform="translate(224.99 52.74) rotate(36.09)">l</text><text class="cls-1" transform="translate(231.9 57.76) rotate(40.02)">i</text><text class="cls-1" transform="translate(238.49 62.8) rotate(46.52)">p</text><text class="cls-1" transform="translate(252.17 77.12) rotate(55.6)">b</text><text class="cls-1" transform="translate(263.42 93.38) rotate(64.81)">o</text><text class="cls-1" transform="matrix(0.28, 0.96, -0.96, 0.28, 272.02, 111.57)">a</text><text class="cls-1" transform="translate(277.19 130.19) rotate(81.13)">r</text><text class="cls-1" transform="translate(279.31 141.77) rotate(88.44)">d</text><text class="cls-1" transform="translate(279.57 161.9) rotate(94.94)"> </text><text class="cls-1" transform="translate(279.16 170.38) rotate(101.21)">c</text><text class="cls-1" transform="translate(275.29 188.65) rotate(107.48)">l</text><text class="cls-1" transform="translate(272.74 196.81) rotate(111.45)">i</text><text class="cls-1" transform="translate(270.06 204.64) rotate(118.01)">p</text><text class="cls-1" transform="translate(260.83 222.16) rotate(127.13)">b</text><text class="cls-1" transform="translate(248.96 237.99) rotate(136.28)">o</text><text class="cls-1" transform="matrix(-0.82, 0.57, -0.57, -0.82, 234.44, 251.92)">a</text><text class="cls-1" transform="translate(218.44 262.78) rotate(152.47)">r</text><text class="cls-1" transform="translate(208.16 268.5) rotate(159.85)">d</text><text class="cls-1" transform="matrix(-0.97, 0.23, -0.23, -0.97, 189.18, 275.15)"> </text><text class="cls-1" transform="matrix(-0.99, 0.13, -0.13, -0.99, 181, 277.44)">c</text><text class="cls-1" transform="translate(162.41 279.55) rotate(178.97)">l</text><text class="cls-1" transform="translate(153.9 279.72) rotate(-177.17)">i</text><text class="cls-1" transform="matrix(-0.99, -0.16, 0.16, -0.99, 145.61, 279.68)">p</text><text class="cls-1" transform="matrix(-0.95, -0.32, 0.32, -0.95, 126.08, 276.55)">b</text><text class="cls-1" transform="translate(107.28 270.35) rotate(-152.23)">o</text><text class="cls-1" transform="translate(89.45 261) rotate(-143.18)">a</text><text class="cls-1" transform="matrix(-0.72, -0.69, 0.69, -0.72, 74.1, 249.27)">r</text><text class="cls-1" transform="translate(65.4 241.32) rotate(-128.74)">d</text><text class="cls-1" transform="translate(53.04 225.45) rotate(-122.17)"> </text><text class="cls-1" transform="translate(48.25 218.44) rotate(-115.89)">c</text><text class="cls-1" transform="translate(40.32 201.53) rotate(-109.62)">l</text><text class="cls-1" transform="translate(37.44 193.5) rotate(-105.66)">i</text><text class="cls-1" transform="translate(34.84 185.62) rotate(-99.08)">p</text><text class="cls-1" transform="translate(31.81 166.18) rotate(-90.93)">b</text><text class="cls-1" transform="translate(31.54 146.29) rotate(-80.9)">o</text><text class="cls-1" transform="matrix(0.31, -0.95, 0.95, 0.31, 34.68, 126.43)">a</text><text class="cls-1" transform="translate(40.91 108.11) rotate(-64.57)">r</text><text class="cls-1" transform="translate(45.66 97.39) rotate(-57.23)">d</text></g></g></svg>