<svg xmlns="http://www.w3.org/2000/svg" viewBox="0 0 324.97 324.98"><defs><style>.cls-1{font-size:45px;fill:#fff;font-family:Roboto-Regular, Roboto;}</style></defs><title>btn-linkedin</title><g id="Calque_2" data-name="Calque 2"><g id="Calque_1-2" data-name="Calque 1"><text class="cls-1" transform="matrix(0.76, -0.65, 0.65, 0.76, 72.61, 76.22)">L</text><text class="cls-1" transform="translate(90.41 61.4) rotate(-32.72)">I</text><text class="cls-1" transform="matrix(0.92, -0.39, 0.39, 0.92, 99.24, 54.6)">N</text><text class="cls-1" transform="matrix(0.99, -0.17, 0.17, 0.99, 127.26, 42.73)">K</text><text class="cls-1" transform="matrix(1, 0.03, -0.03, 1, 153.63, 38.15)">E</text><text class="cls-1" transform="translate(177.75 38.54) rotate(13.76)">D</text><text class="cls-1" transform="translate(205.08 45.84) rotate(22.9)">I</text><text class="cls-1" transform="matrix(0.84, 0.54, -0.54, 0.84, 215.65, 49.29)">N</text><text class="cls-1" transform="translate(241.22 66.53) rotate(41.96)"> </text><text class="cls-1" transform="matrix(0.65, 0.76, -0.76, 0.65, 249.13, 72.97)">L</text><text class="cls-1" transform="translate(263.88 90.83) rotate(57.52)">I</text><text class="cls-1" transform="translate(270.63 99.68) rotate(67.19)">N</text><text class="cls-1" transform="translate(282.4 127.78) rotate(80.41)">K</text><text class="cls-1" transform="matrix(-0.04, 1, -1, -0.04, 286.86, 154.16)">E</text><text class="cls-1" transform="translate(286.38 178.28) rotate(104)">D</text><text class="cls-1" transform="translate(278.97 205.57) rotate(113.15)">I</text><text class="cls-1" transform="translate(275.47 216.12) rotate(122.82)">N</text><text class="cls-1" transform="matrix(-0.67, 0.74, -0.74, -0.67, 258.13, 241.62)"> </text><text class="cls-1" transform="matrix(-0.76, 0.64, -0.64, -0.76, 251.66, 249.5)">L</text><text class="cls-1" transform="matrix(-0.85, 0.53, -0.53, -0.85, 233.73, 264.18)">I</text><text class="cls-1" transform="matrix(-0.92, 0.38, -0.38, -0.92, 224.85, 270.89)">N</text><text class="cls-1" transform="translate(196.73 282.54) rotate(170.64)">K</text><text class="cls-1" transform="matrix(-1, -0.04, 0.04, -1, 170.33, 286.9)">E</text><text class="cls-1" transform="translate(146.2 286.32) rotate(-165.76)">D</text><text class="cls-1" transform="translate(118.93 278.79) rotate(-156.61)">I</text><text class="cls-1" transform="matrix(-0.84, -0.55, 0.55, -0.84, 108.37, 275.24)">N</text><text class="cls-1" transform="translate(82.95 257.79) rotate(-137.56)"> </text><text class="cls-1" transform="matrix(-0.64, -0.77, 0.77, -0.64, 75.11, 251.3)">L</text><text class="cls-1" transform="translate(60.51 233.31) rotate(-122.01)">I</text><text class="cls-1" transform="matrix(-0.38, -0.93, 0.93, -0.38, 53.83, 224.4)">N</text><text class="cls-1" transform="translate(42.3 196.22) rotate(-99.12)">K</text><text class="cls-1" transform="translate(38.05 169.8) rotate(-87.52)">E</text><text class="cls-1" transform="matrix(0.25, -0.97, 0.97, 0.25, 38.73, 145.69)">D</text><text class="cls-1" transform="translate(46.38 118.44) rotate(-66.37)">I</text><text class="cls-1" transform="translate(49.97 107.91) rotate(-56.7)">N</text></g></g></svg>