<svg xmlns="http://www.w3.org/2000/svg" viewBox="0 0 318.12 318.13"><defs><style>.cls-1{font-size:41px;fill:#fff;font-family:Roboto-Regular, Roboto;}</style></defs><title>btn-indiglu</title><g id="Calque_2" data-name="Calque 2"><g id="Calque_1-2" data-name="Calque 1"><text class="cls-1" transform="translate(69.75 72.86) rotate(-43.44)">I</text><text class="cls-1" transform="matrix(0.82, -0.57, 0.57, 0.82, 76.62, 65.29)">N</text><text class="cls-1" transform="translate(99.48 49.46) rotate(-22.36)">D</text><text class="cls-1" transform="translate(123.58 40.09) rotate(-13.98)">I</text><text class="cls-1" transform="translate(133.3 36.95) rotate(-5.41)">G</text><text class="cls-1" transform="translate(159.87 34.59) rotate(5.39)">L</text><text class="cls-1" transform="translate(179.64 36.05) rotate(15.59)">U</text><text class="cls-1" transform="translate(204.16 43.42) rotate(23.68)"> </text><text class="cls-1" transform="translate(212.96 47.23) rotate(28.36)">I</text><text class="cls-1" transform="translate(222.27 51.38) rotate(37.18)">N</text><text class="cls-1" transform="translate(244.47 68.19) rotate(49.39)">D</text><text class="cls-1" transform="translate(260.94 88.15) rotate(57.68)">I</text><text class="cls-1" transform="matrix(0.4, 0.92, -0.92, 0.4, 266.97, 96.38)">G</text><text class="cls-1" transform="translate(277.56 120.82) rotate(77.25)">L</text><text class="cls-1" transform="translate(282.32 140.1) rotate(87.42)">U</text><text class="cls-1" transform="translate(282.98 165.69) rotate(95.34)"> </text><text class="cls-1" transform="translate(282.13 175.24) rotate(99.99)">I</text><text class="cls-1" transform="translate(281.13 185.4) rotate(108.88)">N</text><text class="cls-1" transform="translate(272.15 211.73) rotate(121.21)">D</text><text class="cls-1" transform="translate(258.31 233.61) rotate(129.51)">I</text><text class="cls-1" transform="matrix(-0.74, 0.67, -0.67, -0.74, 252.36, 241.92)">G</text><text class="cls-1" transform="translate(232.45 259.63) rotate(148.9)">L</text><text class="cls-1" transform="translate(215.68 270.22) rotate(159.11)">U</text><text class="cls-1" transform="translate(191.58 278.87) rotate(167.2)"> </text><text class="cls-1" transform="translate(182.25 281.03) rotate(171.88)">I</text><text class="cls-1" transform="matrix(-1, -0.02, 0.02, -1, 172.31, 283.3)">N</text><text class="cls-1" transform="matrix(-0.97, -0.22, 0.22, -0.97, 144.46, 282.95)">D</text><text class="cls-1" transform="translate(119.35 276.71) rotate(-158.77)">I</text><text class="cls-1" transform="translate(109.61 273.68) rotate(-150.19)">G</text><text class="cls-1" transform="translate(86.56 260.29) rotate(-139.28)">L</text><text class="cls-1" transform="matrix(-0.63, -0.78, 0.78, -0.63, 71.26, 247.64)">U</text><text class="cls-1" transform="translate(55.48 227.47) rotate(-121.15)"> </text><text class="cls-1" transform="translate(50.49 219.3) rotate(-116.49)">I</text><text class="cls-1" transform="translate(45.26 210.56) rotate(-107.61)">N</text><text class="cls-1" transform="translate(36.82 184.03) rotate(-95.29)">D</text><text class="cls-1" transform="translate(34.93 158.21) rotate(-87.08)">I</text><text class="cls-1" transform="matrix(0.2, -0.98, 0.98, 0.2, 34.75, 148)">G</text><text class="cls-1" transform="translate(40.2 121.91) rotate(-67.53)">L</text><text class="cls-1" transform="translate(47.4 103.45) rotate(-57.35)">U</text></g></g></svg>