<svg xmlns="http://www.w3.org/2000/svg" viewBox="0 0 323.25 323.27"><defs><style>.cls-1{font-size:44px;fill:#fff;font-family:Roboto-Regular, Roboto;}</style></defs><title>btn-camping</title><g id="Calque_2" data-name="Calque 2"><g id="Calque_1-2" data-name="Calque 1"><text class="cls-1" transform="matrix(0.77, -0.64, 0.64, 0.77, 71.52, 75.27)">C</text><text class="cls-1" transform="matrix(0.89, -0.46, 0.46, 0.89, 92.27, 57.84)">A</text><text class="cls-1" transform="translate(115.93 44.73) rotate(-12.49)">M</text><text class="cls-1" transform="matrix(1, 0.03, -0.03, 1, 151.79, 37.26)">P</text><text class="cls-1" transform="matrix(0.98, 0.18, -0.18, 0.98, 178.37, 38.61)">I</text><text class="cls-1" transform="translate(189.17 39.68) rotate(19.93)">N</text><text class="cls-1" transform="translate(217.16 49.72) rotate(33.33)">G</text><text class="cls-1" transform="matrix(0.74, 0.67, -0.67, 0.74, 240.85, 66.08)"> </text><text class="cls-1" transform="matrix(0.63, 0.77, -0.77, 0.63, 248.64, 72.14)">C</text><text class="cls-1" transform="translate(265.94 93.04) rotate(63.23)">A</text><text class="cls-1" transform="matrix(0.21, 0.98, -0.98, 0.21, 278.87, 116.78)">M</text><text class="cls-1" transform="translate(286.08 152.71) rotate(92.24)">P</text><text class="cls-1" transform="translate(284.53 179.28) rotate(100.87)">I</text><text class="cls-1" transform="matrix(-0.35, 0.94, -0.94, -0.35, 283.38, 190.08)">N</text><text class="cls-1" transform="matrix(-0.56, 0.83, -0.83, -0.56, 273.13, 217.98)">G</text><text class="cls-1" transform="translate(256.61 241.55) rotate(132.61)"> </text><text class="cls-1" transform="matrix(-0.78, 0.63, -0.63, -0.78, 250.47, 249.31)">C</text><text class="cls-1" transform="matrix(-0.9, 0.44, -0.44, -0.9, 229.48, 266.44)">A</text><text class="cls-1" transform="translate(205.62 279.2) rotate(168.35)">M</text><text class="cls-1" transform="translate(169.66 286.14) rotate(-177.35)">P</text><text class="cls-1" transform="translate(143.1 284.41) rotate(-168.72)">I</text><text class="cls-1" transform="translate(132.31 283.17) rotate(-159.22)">N</text><text class="cls-1" transform="matrix(-0.83, -0.56, 0.56, -0.83, 104.47, 272.72)">G</text><text class="cls-1" transform="translate(81.01 256.01) rotate(-136.96)"> </text><text class="cls-1" transform="translate(73.31 249.83) rotate(-128.41)">C</text><text class="cls-1" transform="translate(56.33 228.7) rotate(-115.93)">A</text><text class="cls-1" transform="matrix(-0.19, -0.98, 0.98, -0.19, 43.75, 204.75)">M</text><text class="cls-1" transform="translate(37.07 168.74) rotate(-86.93)">P</text><text class="cls-1" transform="matrix(0.2, -0.98, 0.98, 0.2, 39, 142.2)">I</text><text class="cls-1" transform="translate(40.32 131.41) rotate(-68.79)">N</text><text class="cls-1" transform="translate(50.97 103.66) rotate(-55.41)">G</text></g></g></svg>