<svg xmlns="http://www.w3.org/2000/svg" viewBox="0 0 326.66 326.69"><defs><style>.cls-1{font-size:46px;fill:#eaac7f;font-family:Roboto-Regular, Roboto;}</style></defs><title>btn-maquette-indiglu</title><g id="Calque_2" data-name="Calque 2"><g id="Calque_1-2" data-name="Calque 1"><text class="cls-1" transform="matrix(0.8, -0.6, 0.6, 0.8, 72.46, 76.61)">m</text><text class="cls-1" transform="translate(103.55 53.96) rotate(-22.93)">a</text><text class="cls-1" transform="translate(125.19 44.6) rotate(-11.73)">q</text><text class="cls-1" transform="translate(149.35 39.56) rotate(-0.93)">u</text><text class="cls-1" transform="translate(173.34 39.14) rotate(10.15)">e</text><text class="cls-1" transform="matrix(0.95, 0.32, -0.32, 0.95, 196.13, 43.49)">t</text><text class="cls-1" transform="translate(209.56 48) rotate(25.34)">t</text><text class="cls-1" transform="translate(222.32 53.57) rotate(33.91)">e</text><text class="cls-1" transform="matrix(0.75, 0.66, -0.66, 0.75, 241.47, 66.89)"> </text><text class="cls-1" transform="matrix(0.6, 0.8, -0.8, 0.6, 250.03, 72.44)">m</text><text class="cls-1" transform="translate(272.69 103.51) rotate(67.05)">a</text><text class="cls-1" transform="matrix(0.2, 0.98, -0.98, 0.2, 282.08, 125.18)">q</text><text class="cls-1" transform="translate(287.12 149.34) rotate(89.07)">u</text><text class="cls-1" transform="matrix(-0.18, 0.98, -0.98, -0.18, 287.54, 173.3)">e</text><text class="cls-1" transform="matrix(-0.32, 0.95, -0.95, -0.32, 283.2, 196.11)">t</text><text class="cls-1" transform="translate(278.7 209.53) rotate(115.32)">t</text><text class="cls-1" transform="matrix(-0.56, 0.83, -0.83, -0.56, 273.12, 222.31)">e</text><text class="cls-1" transform="translate(259.81 241.46) rotate(131.65)"> </text><text class="cls-1" transform="matrix(-0.8, 0.6, -0.6, -0.8, 254.26, 250.02)">m</text><text class="cls-1" transform="matrix(-0.92, 0.39, -0.39, -0.92, 223.21, 272.68)">a</text><text class="cls-1" transform="translate(201.55 282.07) rotate(168.23)">q</text><text class="cls-1" transform="matrix(-1, 0.02, -0.02, -1, 177.32, 287.13)">u</text><text class="cls-1" transform="translate(153.4 287.55) rotate(-169.88)">e</text><text class="cls-1" transform="translate(130.59 283.21) rotate(-161.26)">t</text><text class="cls-1" transform="translate(117.17 278.71) rotate(-154.69)">t</text><text class="cls-1" transform="translate(104.41 273.16) rotate(-146.12)">e</text><text class="cls-1" transform="matrix(-0.75, -0.66, 0.66, -0.75, 85.25, 259.85)"> </text><text class="cls-1" transform="matrix(-0.6, -0.8, 0.8, -0.6, 76.69, 254.3)">m</text><text class="cls-1" transform="matrix(-0.39, -0.92, 0.92, -0.39, 54.01, 223.24)">a</text><text class="cls-1" transform="translate(44.62 201.6) rotate(-101.79)">q</text><text class="cls-1" transform="translate(39.55 177.48) rotate(-90.93)">u</text><text class="cls-1" transform="translate(39.13 153.44) rotate(-79.89)">e</text><text class="cls-1" transform="translate(43.45 130.65) rotate(-71.28)">t</text><text class="cls-1" transform="translate(47.95 117.23) rotate(-64.71)">t</text><text class="cls-1" transform="translate(53.51 104.44) rotate(-56.13)">e</text></g></g></svg>