<svg xmlns="http://www.w3.org/2000/svg" viewBox="0 0 303.58 303.59"><defs><style>.cls-1{font-size:32.5px;fill:#fff;font-family:Roboto-Regular, Roboto;}</style></defs><title>btn-campus-car_1</title><g id="Calque_2" data-name="Calque 2"><g id="Calque_1-2" data-name="Calque 1"><text class="cls-1" transform="matrix(0.75, -0.66, 0.66, 0.75, 62.17, 65.46)">C</text><text class="cls-1" transform="matrix(0.85, -0.53, 0.53, 0.85, 77.39, 52.03)">A</text><text class="cls-1" transform="translate(94.36 40.96) rotate(-20.88)">M</text><text class="cls-1" transform="matrix(0.98, -0.17, 0.17, 0.98, 119.99, 31.47)">P</text><text class="cls-1" transform="translate(139.36 27.98) rotate(-0.93)">U</text><text class="cls-1" transform="translate(159.59 27.66) rotate(7.97)">S</text><text class="cls-1" transform="translate(177.87 30.08) rotate(16.94)">C</text><text class="cls-1" transform="translate(197.31 35.92) rotate(26.37)">A</text><text class="cls-1" transform="matrix(0.81, 0.58, -0.58, 0.81, 215.55, 44.94)">R</text><text class="cls-1" transform="matrix(0.75, 0.66, -0.66, 0.75, 231.18, 56.45)"> </text><text class="cls-1" transform="translate(237.02 61.1) rotate(48.07)">C</text><text class="cls-1" transform="matrix(0.54, 0.84, -0.84, 0.54, 250.63, 76.15)">A</text><text class="cls-1" transform="translate(261.9 92.96) rotate(68.39)">M</text><text class="cls-1" transform="matrix(0.19, 0.98, -0.98, 0.19, 271.72, 118.51)">P</text><text class="cls-1" transform="translate(275.46 137.81) rotate(88.44)">U</text><text class="cls-1" transform="translate(276.02 158.05) rotate(97.26)">S</text><text class="cls-1" transform="translate(273.83 176.37) rotate(106.23)">C</text><text class="cls-1" transform="matrix(-0.43, 0.9, -0.9, -0.43, 268.22, 195.87)">A</text><text class="cls-1" transform="translate(259.43 214.21) rotate(124.77)">R</text><text class="cls-1" transform="matrix(-0.66, 0.76, -0.76, -0.66, 248.12, 229.99)"> </text><text class="cls-1" transform="translate(243.54 235.88) rotate(137.37)">C</text><text class="cls-1" transform="translate(228.65 249.69) rotate(146.7)">A</text><text class="cls-1" transform="matrix(-0.93, 0.38, -0.38, -0.93, 211.97, 261.17)">M</text><text class="cls-1" transform="translate(186.55 271.3) rotate(168.57)">P</text><text class="cls-1" transform="translate(167.32 275.28) rotate(177.73)">U</text><text class="cls-1" transform="translate(147.09 276.08) rotate(-173.46)">S</text><text class="cls-1" transform="translate(128.73 274.11) rotate(-164.48)">C</text><text class="cls-1" transform="translate(109.16 268.75) rotate(-155.05)">A</text><text class="cls-1" transform="translate(90.72 260.2) rotate(-145.94)">R</text><text class="cls-1" transform="matrix(-0.76, -0.65, 0.65, -0.76, 74.8, 249.08)"> </text><text class="cls-1" transform="matrix(-0.69, -0.73, 0.73, -0.69, 68.85, 244.57)">C</text><text class="cls-1" transform="matrix(-0.56, -0.83, 0.83, -0.56, 54.87, 229.85)">A</text><text class="cls-1" transform="translate(43.18 213.31) rotate(-113.03)">M</text><text class="cls-1" transform="translate(32.73 188.03) rotate(-102.15)">P</text><text class="cls-1" transform="translate(28.51 168.85) rotate(-92.97)">U</text><text class="cls-1" transform="translate(27.47 148.61) rotate(-84.16)">S</text><text class="cls-1" transform="matrix(0.26, -0.97, 0.97, 0.26, 29.2, 130.24)">C</text><text class="cls-1" transform="matrix(0.41, -0.91, 0.91, 0.41, 34.32, 110.6)">A</text><text class="cls-1" transform="matrix(0.55, -0.84, 0.84, 0.55, 42.66, 92.04)">R</text></g></g></svg>