<svg xmlns="http://www.w3.org/2000/svg" viewBox="0 0 311.29 311.29"><defs><style>.cls-1{font-size:37px;fill:#fff;font-family:Roboto-Regular, Roboto;}</style></defs><title>btn-clipboard</title><g id="Calque_2" data-name="Calque 2"><g id="Calque_1-2" data-name="Calque 1"><text class="cls-1" transform="translate(65.85 69.3) rotate(-40.6)">C</text><text class="cls-1" transform="matrix(0.86, -0.51, 0.51, 0.86, 83.39, 54.37)">L</text><text class="cls-1" transform="translate(99.97 44.71) rotate(-24.36)">I</text><text class="cls-1" transform="translate(108.22 40.44) rotate(-16.98)">P</text><text class="cls-1" transform="translate(129.48 33.87) rotate(-6.75)">B</text><text class="cls-1" transform="matrix(1, 0.07, -0.07, 1, 151.26, 31.08)">O</text><text class="cls-1" transform="translate(175.14 32.57) rotate(14.52)">A</text><text class="cls-1" transform="translate(197.46 38.31) rotate(24.9)">R</text><text class="cls-1" transform="translate(217.22 47.31) rotate(35.25)">D</text><text class="cls-1" transform="translate(236.11 61.19) rotate(42.56)"> </text><text class="cls-1" transform="translate(242.67 66.5) rotate(49.83)">C</text><text class="cls-1" transform="matrix(0.51, 0.86, -0.86, 0.51, 257.46, 84.16)">L</text><text class="cls-1" transform="translate(267 100.79) rotate(66.07)">I</text><text class="cls-1" transform="translate(271.2 109.09) rotate(73.46)">P</text><text class="cls-1" transform="matrix(0.11, 0.99, -0.99, 0.11, 277.62, 130.4)">B</text><text class="cls-1" transform="matrix(-0.07, 1, -1, -0.07, 280.24, 152.21)">O</text><text class="cls-1" transform="matrix(-0.26, 0.97, -0.97, -0.26, 278.57, 176.07)">A</text><text class="cls-1" transform="translate(272.66 198.35) rotate(115.33)">R</text><text class="cls-1" transform="matrix(-0.58, 0.81, -0.81, -0.58, 263.52, 218.03)">D</text><text class="cls-1" transform="matrix(-0.68, 0.73, -0.73, -0.68, 249.5, 236.82)"> </text><text class="cls-1" transform="translate(244.15 243.32) rotate(140.24)">C</text><text class="cls-1" transform="matrix(-0.87, 0.5, -0.5, -0.87, 226.38, 257.99)">L</text><text class="cls-1" transform="translate(209.67 267.4) rotate(156.49)">I</text><text class="cls-1" transform="translate(201.35 271.55) rotate(163.88)">P</text><text class="cls-1" transform="translate(179.97 277.81) rotate(174.11)">B</text><text class="cls-1" transform="translate(158.17 280.26) rotate(-175.37)">O</text><text class="cls-1" transform="translate(134.3 278.42) rotate(-164.61)">A</text><text class="cls-1" transform="translate(112.08 272.34) rotate(-154.24)">R</text><text class="cls-1" transform="translate(92.45 263.05) rotate(-143.9)">D</text><text class="cls-1" transform="translate(73.77 248.89) rotate(-136.59)"> </text><text class="cls-1" transform="translate(67.31 243.5) rotate(-129.33)">C</text><text class="cls-1" transform="translate(52.77 225.61) rotate(-119.68)">L</text><text class="cls-1" transform="translate(43.49 208.85) rotate(-113.08)">I</text><text class="cls-1" transform="translate(39.41 200.48) rotate(-105.69)">P</text><text class="cls-1" transform="translate(33.31 179.06) rotate(-95.46)">B</text><text class="cls-1" transform="matrix(0.09, -1, 1, 0.09, 31.01, 157.25)">O</text><text class="cls-1" transform="matrix(0.27, -0.96, 0.96, 0.27, 33.04, 133.4)">A</text><text class="cls-1" transform="translate(39.28 111.22) rotate(-63.81)">R</text><text class="cls-1" transform="matrix(0.6, -0.8, 0.8, 0.6, 48.71, 91.67)">D</text></g></g></svg>