<svg width="39" height="38" viewBox="0 0 39 38" fill="none" xmlns="http://www.w3.org/2000/svg">
<path d="M31.2544 19.0202V15.4511C31.2551 14.7657 31.0529 14.0955 30.6736 13.5254C30.2942 12.9553 29.7548 12.511 29.1236 12.2488C26.0753 10.981 22.8079 10.3284 19.5081 10.3284C16.2084 10.3284 12.941 10.981 9.89271 12.2488C9.26253 12.5121 8.72419 12.9567 8.34564 13.5266C7.96708 14.0965 7.76528 14.7662 7.76571 15.4511V18.8581L0 13.8351L19.512 0L39 13.8351L31.2544 19.0202Z" fill="#055C8C"/>
<path d="M29.8076 16.6405V26.72C28.99 24.9132 27.6712 23.381 26.0088 22.3064C24.3463 21.2317 22.4106 20.6603 20.433 20.6603H18.5944C16.616 20.6601 14.6795 21.2319 13.0165 22.3072C11.3535 23.3824 10.0345 24.9157 9.21728 26.7234V16.6427C9.21725 16.042 9.39476 15.4548 9.72737 14.9554C10.06 14.4559 10.5327 14.0667 11.0858 13.8369C13.7585 12.7254 16.6232 12.1533 19.5163 12.1533C22.4094 12.1533 25.2741 12.7254 27.9467 13.8369C28.4981 14.0677 28.969 14.4571 29.3002 14.956C29.6313 15.455 29.8079 16.0411 29.8076 16.6405Z" fill="#FECB49"/>
<path d="M28.9011 27.6703C27.9346 25.5147 26.2606 23.7569 24.1583 22.6902C22.0561 21.6235 19.6528 21.3124 17.3496 21.8088C15.0464 22.3053 12.9825 23.5792 11.5024 25.4181C10.0222 27.257 9.21537 29.5495 9.21643 31.9132V32.996C9.21643 33.6384 9.47078 34.2545 9.92352 34.7088C10.3763 35.163 10.9903 35.4182 11.6306 35.4182H27.3934C28.0337 35.4182 28.6477 35.163 29.1005 34.7088C29.5532 34.2545 29.8076 33.6384 29.8076 32.996V31.9132C29.8098 30.4503 29.5008 29.0038 28.9011 27.6703ZM14.2723 31.1753C13.9269 31.1755 13.5891 31.0729 13.3018 30.8804C13.0145 30.688 12.7906 30.4144 12.6582 30.0943C12.5259 29.7741 12.4912 29.4218 12.5584 29.0818C12.6257 28.7419 12.7919 28.4296 13.0361 28.1844C13.2802 27.9392 13.5914 27.7722 13.9301 27.7045C14.2689 27.6368 14.6201 27.6714 14.9393 27.8039C15.2584 27.9364 15.5313 28.161 15.7233 28.4491C15.9153 28.7372 16.0178 29.076 16.0179 29.4226C16.018 29.8872 15.8341 30.3329 15.5068 30.6616C15.1794 30.9903 14.7354 31.1751 14.2723 31.1753ZM24.7517 31.1753C24.4063 31.1753 24.0686 31.0725 23.7815 30.88C23.4943 30.6874 23.2704 30.4138 23.1382 30.0936C23.006 29.7734 22.9715 29.4211 23.0388 29.0812C23.1062 28.7413 23.2726 28.429 23.5168 28.184C23.761 27.9389 24.0722 27.772 24.411 27.7044C24.7498 27.6368 25.1009 27.6715 25.42 27.8041C25.7392 27.9367 26.0119 28.1613 26.2038 28.4495C26.3957 28.7377 26.4981 29.0764 26.4981 29.423C26.4981 29.8877 26.3141 30.3335 25.9866 30.6621C25.6591 30.9907 25.2149 31.1753 24.7517 31.1753Z" fill="#FECB49"/>
<path d="M14.364 36.3397V36.753C14.364 37.0837 14.2331 37.4009 14 37.6347C13.7669 37.8686 13.4508 38 13.1211 38H12.1136C11.7839 38 11.4678 37.8686 11.2347 37.6347C11.0017 37.4009 10.8707 37.0837 10.8707 36.753V36.2163C11.1154 36.2988 11.372 36.3405 11.6301 36.3397H14.364Z" fill="#FECB49"/>
<path d="M28.1529 36.2163V36.753C28.1529 37.0837 28.0219 37.4009 27.7888 37.6347C27.5557 37.8686 27.2396 38 26.91 38H25.9024C25.5728 38 25.2567 37.8686 25.0236 37.6347C24.7905 37.4009 24.6596 37.0837 24.6596 36.753V36.3397H27.3934C27.6516 36.3405 27.9081 36.2988 28.1529 36.2163Z" fill="#FECB49"/>
</svg>
