<svg width="479" height="71" viewBox="0 0 479 71" fill="none" xmlns="http://www.w3.org/2000/svg">
<path d="M37.128 70.152C30.28 70.152 24.072 68.68 18.504 65.736C13 62.728 8.648 58.6 5.448 53.352C2.312 48.04 0.744 42.056 0.744 35.4C0.744 28.744 2.312 22.792 5.448 17.544C8.648 12.232 13 8.104 18.504 5.16C24.072 2.152 30.312 0.647999 37.224 0.647999C43.048 0.647999 48.296 1.672 52.968 3.72C57.704 5.768 61.672 8.712 64.872 12.552L54.888 21.768C50.344 16.52 44.712 13.896 37.992 13.896C33.832 13.896 30.12 14.824 26.856 16.68C23.592 18.472 21.032 21 19.176 24.264C17.384 27.528 16.488 31.24 16.488 35.4C16.488 39.56 17.384 43.272 19.176 46.536C21.032 49.8 23.592 52.36 26.856 54.216C30.12 56.008 33.832 56.904 37.992 56.904C44.712 56.904 50.344 54.248 54.888 48.936L64.872 58.152C61.672 62.056 57.704 65.032 52.968 67.08C48.232 69.128 42.952 70.152 37.128 70.152ZM118.318 54.6H87.1178L81.1658 69H65.2297L95.1818 1.8H110.542L140.59 69H124.27L118.318 54.6ZM113.422 42.792L102.766 17.064L92.1098 42.792H113.422ZM208.714 69L208.618 28.68L188.842 61.896H181.834L162.154 29.544V69H147.562V1.8H160.426L185.578 43.56L210.346 1.8H223.114L223.306 69H208.714ZM268.337 1.8C274.289 1.8 279.441 2.792 283.793 4.776C288.209 6.76 291.601 9.576 293.969 13.224C296.337 16.872 297.521 21.192 297.521 26.184C297.521 31.112 296.337 35.432 293.969 39.144C291.601 42.792 288.209 45.608 283.793 47.592C279.441 49.512 274.289 50.472 268.337 50.472H254.801V69H239.249V1.8H268.337ZM267.473 37.8C272.145 37.8 275.697 36.808 278.129 34.824C280.561 32.776 281.777 29.896 281.777 26.184C281.777 22.408 280.561 19.528 278.129 17.544C275.697 15.496 272.145 14.472 267.473 14.472H254.801V37.8H267.473ZM308.624 1.8H324.176V69H308.624V1.8ZM401.756 1.8V69H388.988L355.484 28.2V69H340.124V1.8H352.988L386.396 42.6V1.8H401.756ZM463.064 34.344H477.272V61.608C473.624 64.36 469.4 66.472 464.6 67.944C459.8 69.416 454.968 70.152 450.104 70.152C443.128 70.152 436.856 68.68 431.288 65.736C425.72 62.728 421.336 58.6 418.136 53.352C415 48.04 413.432 42.056 413.432 35.4C413.432 28.744 415 22.792 418.136 17.544C421.336 12.232 425.752 8.104 431.384 5.16C437.016 2.152 443.352 0.647999 450.392 0.647999C456.28 0.647999 461.624 1.64 466.424 3.62399C471.224 5.608 475.256 8.488 478.52 12.264L468.536 21.48C463.736 16.424 457.944 13.896 451.16 13.896C446.872 13.896 443.064 14.792 439.736 16.584C436.408 18.376 433.816 20.904 431.96 24.168C430.104 27.432 429.176 31.176 429.176 35.4C429.176 39.56 430.104 43.272 431.96 46.536C433.816 49.8 436.376 52.36 439.64 54.216C442.968 56.008 446.744 56.904 450.968 56.904C455.448 56.904 459.48 55.944 463.064 54.024V34.344Z" fill="#236969"/>
</svg>
