<svg xmlns="http://www.w3.org/2000/svg" width="539" height="236.818" viewBox="0 0 539 236.818">
  <g id="Calque_2" data-name="Calque 2" transform="translate(0.004)">
    <g id="Calque_2-2" data-name="Calque 2" transform="translate(-0.004)">
      <path id="Tracé_1" data-name="Tracé 1" d="M28.878,94.444S7.787,85.049,1.974,70.459,5.011,34.54,5.011,34.54s20.545,8.019,26.927,23.985S28.878,94.444,28.878,94.444Z" transform="translate(0.004 47.404)" fill="#eaac7f"/>
      <path id="Tracé_2" data-name="Tracé 2" d="M27.9,64.129S23.842,48.4,27.235,35.28H13V51.626a29.822,29.822,0,0,1,3.179,5.884c6.358,15.99-3.037,35.919-3.037,35.919H13v18.434H38.883V60.143A61.683,61.683,0,0,1,27.9,64.129Z" transform="translate(17.851 48.42)" fill="#493323"/>
      <path id="Tracé_3" data-name="Tracé 3" d="M79.432,35.28V70.036L50.37,35.28H39.1a31.957,31.957,0,0,1-3.369,8.826,32.36,32.36,0,0,1-6.572,7.948v59.738H54.308V77.035l29.039,34.756H104.7V35.28Z" transform="translate(40.029 48.42)" fill="#493323"/>
      <path id="Tracé_4" data-name="Tracé 4" d="M66.2,35.284h37.7a51.909,51.909,0,0,1,22.586,4.745,35.587,35.587,0,0,1,15.184,13.286,37.437,37.437,0,0,1,5.409,20.332,37.413,37.413,0,0,1-5.433,20.284,35.3,35.3,0,0,1-15.184,13.286,51.909,51.909,0,0,1-22.586,4.745H66.2Zm36.607,56.393a18.363,18.363,0,0,0,13.286-4.745,17.651,17.651,0,0,0,4.982-13.381,17.675,17.675,0,0,0-4.982-13.4A18.481,18.481,0,0,0,102.807,55.4H91.988V91.677Z" transform="translate(90.865 48.416)" fill="#493323"/>
      <path id="Tracé_5" data-name="Tracé 5" d="M104.25,35.28h25.789v76.511H104.25Z" transform="translate(143.086 48.42)" fill="#493323"/>
      <path id="Tracé_6" data-name="Tracé 6" d="M172.758,72.562h22.4v32.36a52.6,52.6,0,0,1-15.729,7.117,65.716,65.716,0,0,1-17.6,2.515,46.666,46.666,0,0,1-21.969-5.1A37.793,37.793,0,0,1,124.6,95.219a39.311,39.311,0,0,1-5.5-20.711A39.193,39.193,0,0,1,124.6,53.8a37.7,37.7,0,0,1,15.421-14.235,48.137,48.137,0,0,1,22.348-5.077,51.363,51.363,0,0,1,20.166,3.748,38.1,38.1,0,0,1,14.8,10.984L180.729,63.76a21.921,21.921,0,0,0-17.153-8.422,18.125,18.125,0,0,0-13.547,5.148,19.169,19.169,0,0,0-5.03,14,19.359,19.359,0,0,0,4.982,13.879,17.414,17.414,0,0,0,13.262,5.243,24.009,24.009,0,0,0,9.49-1.874Z" transform="translate(163.45 47.318)" fill="#493323"/>
      <path id="Tracé_7" data-name="Tracé 7" d="M155.8,35.28h25.788V91.792h34.543v20H155.8Z" transform="translate(213.836 48.42)" fill="#493323"/>
      <path id="Tracé_8" data-name="Tracé 8" d="M258.262,35.29H232.9v41.3q0,8.4-3.013,12.242a11.862,11.862,0,0,1-17.366,0q-3.037-3.843-3.013-12.242V35.29H183.72V77.306q0,17.153,9.846,26.666a35.088,35.088,0,0,0,21.921,9.253,29.111,29.111,0,0,1,3.393-10.012c7.663-13.357,26.9-17.888,26.9-17.888a67.641,67.641,0,0,1,1.684,19.525l.949-.878a30.842,30.842,0,0,0,8.327-14.4,3.8,3.8,0,0,1-.237-.546c-4.745-12.123-.569-26.524,1.756-32.763Z" transform="translate(252.154 48.434)" fill="#493323"/>
      <path id="Tracé_9" data-name="Tracé 9" d="M21.058,75.22S15.91,55.173,22.885,42.978,49.765,25.09,49.765,25.09,55.6,44.07,47.938,57.332,21.058,75.22,21.058,75.22Z" transform="translate(26.399 34.435)" fill="#eaac7f"/>
      <path id="Tracé_10" data-name="Tracé 10" d="M29.5,69.273S10.524,60.8,5.257,47.66,8.009,15.3,8.009,15.3s18.505,7.117,24.246,21.613S29.5,69.273,29.5,69.273Z" transform="translate(4.764 20.998)" fill="#eaac7f"/>
      <path id="Tracé_11" data-name="Tracé 11" d="M22.121,62.8S13.58,39.691,20.413,24.412,50.092,0,50.092,0,59.273,21.66,51.8,38.386,22.121,62.8,22.121,62.8Z" transform="translate(24.388)" fill="#eaac7f"/>
      <path id="Tracé_12" data-name="Tracé 12" d="M218.915,44s18.98,8.493,24.318,21.66-2.752,32.479-2.752,32.479S221.9,91.022,216.162,76.455,218.915,44,218.915,44Z" transform="translate(293.946 60.388)" fill="#eaac7f"/>
      <path id="Tracé_13" data-name="Tracé 13" d="M224.887,57.67s4.531,17.627-1.613,28.469-23.724,15.729-23.724,15.729-5.124-16.607,1.613-28.469S224.887,57.67,224.887,57.67Z" transform="translate(271.319 79.149)" fill="#eaac7f"/>
      <path id="Tracé_14" data-name="Tracé 14" d="M216.086,63.18s19.668,8.754,25.077,22.348S238.339,119,238.339,119s-19.146-7.473-25.077-22.348S216.086,63.18,216.086,63.18Z" transform="translate(289.871 86.711)" fill="#eaac7f"/>
      <path id="Tracé_15" data-name="Tracé 15" d="M226.6,75s7.971,21.684,1.59,36.014-27.853,22.87-27.853,22.87-8.588-20.308-1.589-36.014S226.6,75,226.6,75Z" transform="translate(269.012 102.933)" fill="#eaac7f"/>
    </g>
  </g>
</svg>
