<svg xmlns="http://www.w3.org/2000/svg" width="70" height="70" viewBox="0 0 70 70">
  <path id="dribbble-logo" d="M35,0A35,35,0,1,0,70,35,35.04,35.04,0,0,0,35,0ZM57.808,16.508a29.233,29.233,0,0,1,6.549,17.6,49.4,49.4,0,0,0-19.687-.189c-1.053-2.464-2.144-4.811-3.245-7.029A57.959,57.959,0,0,0,57.808,16.508ZM53.865,12.5a52.185,52.185,0,0,1-15.044,9.387,134.868,134.868,0,0,0-9.946-15.62A29.307,29.307,0,0,1,53.865,12.5ZM23.2,8.1a128.64,128.64,0,0,1,10.24,15.783A93.933,93.933,0,0,1,6.431,28.163,29.491,29.491,0,0,1,23.2,8.1ZM5.65,33.8h.166a101.629,101.629,0,0,0,17.816-1.645A86.573,86.573,0,0,0,36.1,28.936c1.018,2.029,2.03,4.169,3.011,6.412a52.954,52.954,0,0,0-13.749,6.817A61.915,61.915,0,0,0,12.591,53.971,29.24,29.24,0,0,1,5.62,35C5.62,34.6,5.634,34.2,5.65,33.8ZM16.64,57.914A56.509,56.509,0,0,1,28.717,46.681a47.12,47.12,0,0,1,12.526-6.157,109.332,109.332,0,0,1,5.9,21.22,29.285,29.285,0,0,1-30.5-3.829Zm35.674.8a116.487,116.487,0,0,0-5.523-19.526,44.277,44.277,0,0,1,17.2.581A29.412,29.412,0,0,1,52.314,58.717Z" transform="translate(0 -0.001)" fill="#ff005c"/>
</svg>
