<svg xmlns="http://www.w3.org/2000/svg" width="70" height="70" viewBox="0 0 70 70">
  <path id="linkedin" d="M35,0A35,35,0,1,0,70,35,35,35,0,0,0,35,0ZM24.829,52.91H16.305V27.265h8.524ZM20.568,23.763h-.056a4.413,4.413,0,0,1-4.71-4.43c0-2.516,1.907-4.431,4.823-4.431a4.43,4.43,0,0,1,4.766,4.431c0,2.461-1.85,4.43-4.823,4.43Zm35,29.147H47.042V39.191c0-3.448-1.234-5.8-4.318-5.8a4.666,4.666,0,0,0-4.373,3.117,5.837,5.837,0,0,0-.28,2.08V52.91H29.547s.112-23.239,0-25.645H38.07V30.9a8.462,8.462,0,0,1,7.682-4.233c5.608,0,9.813,3.665,9.813,11.542Zm0,0" fill="#ff005c"/>
</svg>
