<svg xmlns="http://www.w3.org/2000/svg" width="43.979" height="43.979" viewBox="0 0 43.979 43.979">
  <g id="clock" transform="translate(0 0)">
    <path id="Tracé_3" data-name="Tracé 3" d="M39.352,11.572a1.832,1.832,0,0,0-.851,2.447,18.138,18.138,0,0,1,1.814,7.971A18.325,18.325,0,1,1,21.99,3.665,18.1,18.1,0,0,1,33.366,7.618a1.832,1.832,0,1,0,2.28-2.869,21.993,21.993,0,1,0,8.333,17.24A21.765,21.765,0,0,0,41.8,12.423a1.83,1.83,0,0,0-2.447-.851Zm0,0" fill="#493323"/>
    <path id="Tracé_4" data-name="Tracé 4" d="M177.832,64A1.833,1.833,0,0,0,176,65.832V78.66a1.833,1.833,0,0,0,1.832,1.832h9.162a1.832,1.832,0,0,0,0-3.665h-7.33V65.832A1.833,1.833,0,0,0,177.832,64Zm0,0" transform="translate(-155.842 -56.67)" fill="#493323"/>
  </g>
</svg>
