<svg xmlns="http://www.w3.org/2000/svg" width="70" height="70" viewBox="0 0 70 70">
  <path id="twitter_1_" data-name="twitter(1)" d="M35,0A35,35,0,1,0,70,35,35,35,0,0,0,35,0ZM50.981,27.289q.023.517.023,1.038c0,10.615-8.08,22.857-22.857,22.857h0a22.739,22.739,0,0,1-12.314-3.609,16.339,16.339,0,0,0,1.916.111,16.119,16.119,0,0,0,9.978-3.439,8.042,8.042,0,0,1-7.505-5.58,8.007,8.007,0,0,0,3.628-.138A8.036,8.036,0,0,1,17.4,30.656c0-.036,0-.069,0-.1a7.978,7.978,0,0,0,3.639,1,8.04,8.04,0,0,1-2.487-10.725,22.808,22.808,0,0,0,16.559,8.394A8.038,8.038,0,0,1,48.806,21.9a16.113,16.113,0,0,0,5.1-1.95,8.065,8.065,0,0,1-3.533,4.443,16.022,16.022,0,0,0,4.613-1.265,16.326,16.326,0,0,1-4.007,4.16Zm0,0" fill="#ff005c"/>
</svg>
