<svg xmlns="http://www.w3.org/2000/svg" xmlns:xlink="http://www.w3.org/1999/xlink" viewBox="0 0 90.56 48.77"><defs><style>.cls-1{fill:#f3c843;}.cls-2{fill:#2fa59a;}.cls-3{fill:url(#Dégradé_sans_nom_20);}.cls-4{fill:#e84566;}</style><linearGradient id="Dégradé_sans_nom_20" x1="38.78" y1="5.5" x2="38.78" y2="48.53" gradientUnits="userSpaceOnUse"><stop offset="0.01" stop-color="#2fa59a"/><stop offset="0.03" stop-color="#40a892"/><stop offset="0.09" stop-color="#6fb17c"/><stop offset="0.15" stop-color="#98b869"/><stop offset="0.21" stop-color="#b9be5a"/><stop offset="0.28" stop-color="#d2c24e"/><stop offset="0.35" stop-color="#e5c546"/><stop offset="0.42" stop-color="#efc741"/><stop offset="0.5" stop-color="#f3c83f"/><stop offset="0.54" stop-color="#f2c241"/><stop offset="0.6" stop-color="#f1b046"/><stop offset="0.67" stop-color="#ef934f"/><stop offset="0.75" stop-color="#eb6c5b"/><stop offset="0.81" stop-color="#e84566"/></linearGradient></defs><title>Fichier 5</title><g id="Calque_2" data-name="Calque 2"><g id="Calque_1-2" data-name="Calque 1"><path class="cls-1" d="M37.1,28.77h0a.83.83,0,0,0-.83.83v1.67a.83.83,0,0,1-.83.83H33.78a.83.83,0,0,1-.83-.83V29.6a.83.83,0,0,0-.83-.83H25.59a.83.83,0,0,1-.82-.94L26.4,16.2a.81.81,0,0,1,.82-.71h1.64a.82.82,0,0,1,.82.94l-1.17,8.08a.83.83,0,0,0,.82.95h2.79a.83.83,0,0,0,.83-.83V18a.83.83,0,0,1,.83-.82h1.66a.83.83,0,0,1,.83.82v6.65a.83.83,0,0,0,.83.83h0a.83.83,0,0,1,.83.83V28A.83.83,0,0,1,37.1,28.77Z"/><path class="cls-2" d="M35.4,17.89H33.87a.83.83,0,0,1-.82-.83V6.31a.83.83,0,0,1,.82-.83H35.4a.83.83,0,0,1,.83.83V17.06A.83.83,0,0,1,35.4,17.89Z"/><path class="cls-2" d="M50.62,17.89h-.77l-1.22-1.71a8.9,8.9,0,0,1-1,.76,7,7,0,0,1-1.06.62,6.75,6.75,0,0,1-1.14.41,4.79,4.79,0,0,1-1.19.15,6.35,6.35,0,0,1-2.46-.49,6.24,6.24,0,0,1-2-1.37,6.6,6.6,0,0,1-1.37-2.08A6.74,6.74,0,0,1,38,11.57,6.76,6.76,0,0,1,38.44,9a6.54,6.54,0,0,1,1.37-2.09,6.11,6.11,0,0,1,2-1.38A6.18,6.18,0,0,1,44.28,5a6.64,6.64,0,0,1,.87.07A5.59,5.59,0,0,1,46,5.3a3.49,3.49,0,0,1,.79.41,2.32,2.32,0,0,1,.62.63v-5a.83.83,0,0,1,.83-.83h1.53a.83.83,0,0,1,.83.83Zm-3.19-6.32a3.17,3.17,0,0,0-.25-1.25,3.51,3.51,0,0,0-.67-1.08,3.33,3.33,0,0,0-1-.75,2.75,2.75,0,0,0-1.23-.29,3.31,3.31,0,0,0-1.22.23,2.92,2.92,0,0,0-1.66,1.73,3.93,3.93,0,0,0-.24,1.41,3.53,3.53,0,0,0,.24,1.3A3.48,3.48,0,0,0,42.06,14a3.26,3.26,0,0,0,1,.73,3,3,0,0,0,1.22.26,2.74,2.74,0,0,0,1.23-.28,3.5,3.5,0,0,0,1-.75,3.76,3.76,0,0,0,.67-1.08A3.26,3.26,0,0,0,47.43,11.57Z"/><path class="cls-2" d="M58,14.85a2.74,2.74,0,0,0,.37.08h.37a3.37,3.37,0,0,0,.9-.12,3.42,3.42,0,0,0,.8-.37,3,3,0,0,0,1.15-1.34l1.8,1.8a.85.85,0,0,1,0,1.15c-.17.18-.34.35-.52.51a6.77,6.77,0,0,1-1.24.84,6.39,6.39,0,0,1-5.38.22,6.18,6.18,0,0,1-2-1.35,6.26,6.26,0,0,1-1.36-2.07,6.68,6.68,0,0,1-.5-2.64,6.93,6.93,0,0,1,.5-2.69,6.06,6.06,0,0,1,1.36-2.07,6.13,6.13,0,0,1,2-1.33,6.44,6.44,0,0,1,5.39.24,6.49,6.49,0,0,1,1.24.85,5.11,5.11,0,0,1,.57.57.81.81,0,0,1,0,1.08Zm1.62-6.52a2.26,2.26,0,0,0-.43-.11l-.45,0a3.12,3.12,0,0,0-1.22.24,2.83,2.83,0,0,0-1,.68,3,3,0,0,0-.67,1.06,3.82,3.82,0,0,0-.24,1.39c0,.12,0,.25,0,.4l.06.44c0,.15.06.3.1.44a1.79,1.79,0,0,0,.15.37Z"/><path class="cls-2" d="M77.4,17.89h-.76l-1.23-1.71a8.9,8.9,0,0,1-1,.76,7,7,0,0,1-1.06.62,6.75,6.75,0,0,1-1.14.41,4.73,4.73,0,0,1-1.19.15,6.92,6.92,0,0,1-2.46-.44,5.85,5.85,0,0,1-2-1.28,5.93,5.93,0,0,1-1.36-2.06,7.09,7.09,0,0,1-.5-2.77,6.81,6.81,0,0,1,.5-2.66,6.31,6.31,0,0,1,1.36-2.08,6.16,6.16,0,0,1,2-1.34A6.35,6.35,0,0,1,71.06,5a4.45,4.45,0,0,1,1.2.16,6,6,0,0,1,1.14.41,6.59,6.59,0,0,1,1.06.63,9.11,9.11,0,0,1,1,.77L76.64,5.5h.76Zm-3.18-6.32A3.36,3.36,0,0,0,74,10.32a3.74,3.74,0,0,0-.68-1.08,3.33,3.33,0,0,0-1-.75,2.75,2.75,0,0,0-1.23-.29,3.52,3.52,0,0,0-1.22.22,2.89,2.89,0,0,0-1,.65,3,3,0,0,0-.67,1.06,4,4,0,0,0-.24,1.44A4,4,0,0,0,68.18,13a2.79,2.79,0,0,0,.67,1.06,2.63,2.63,0,0,0,1,.65,3.3,3.3,0,0,0,1.22.22,2.74,2.74,0,0,0,1.23-.28,3.5,3.5,0,0,0,1-.75A4,4,0,0,0,74,12.83,3.45,3.45,0,0,0,74.22,11.57Z"/><path class="cls-2" d="M86.62,17.89h-6.4a.83.83,0,0,1-.83-.83v-1.5a.83.83,0,0,1,.83-.82h6.4a.8.8,0,0,0,.79-.79.43.43,0,0,0-.23-.44,1.36,1.36,0,0,0-.56-.11H83.33a3.78,3.78,0,0,1-1.54-.31,4,4,0,0,1-1.25-.85A3.87,3.87,0,0,1,79.7,11a4,4,0,0,1,0-3.08,3.72,3.72,0,0,1,.84-1.25,3.82,3.82,0,0,1,1.25-.84,4,4,0,0,1,1.54-.31h5.58a.83.83,0,0,1,.83.83v1.5a.83.83,0,0,1-.83.82H83.33a.8.8,0,0,0-.79.79.75.75,0,0,0,.24.57.74.74,0,0,0,.55.24h3.29a4.32,4.32,0,0,1,1.53.27,4,4,0,0,1,1.25.76,3.67,3.67,0,0,1,.85,1.17,3.57,3.57,0,0,1,.31,1.5,3.7,3.7,0,0,1-.31,1.53,4,4,0,0,1-.85,1.25,3.9,3.9,0,0,1-1.25.85A4,4,0,0,1,86.62,17.89Z"/><path class="cls-3" d="M44.61,36.15H41l-4.7,6V6.33a.83.83,0,0,0-.83-.83H33.78a.83.83,0,0,0-.83.83V47.71a.83.83,0,0,0,.83.82h1.66a.83.83,0,0,0,.83-.82v-.78L38.46,44,41,48.53h3.64L40.5,41.32Z"/><path class="cls-4" d="M3.19,48.53H0V31.19H3.19Z"/><path class="cls-4" d="M17.58,42.22a6.71,6.71,0,0,1-.49,2.59,6.59,6.59,0,0,1-1.36,2.07,6.11,6.11,0,0,1-2,1.38,6.21,6.21,0,0,1-4.93,0,6.35,6.35,0,0,1-3.38-3.45,6.72,6.72,0,0,1-.5-2.59,6.87,6.87,0,0,1,.5-2.62,6.26,6.26,0,0,1,3.38-3.45,6.15,6.15,0,0,1,2.46-.5,6.54,6.54,0,0,1,2.47.47,6,6,0,0,1,2,1.33,6.52,6.52,0,0,1,1.36,2.08A7,7,0,0,1,17.58,42.22Zm-3.18,0a3.77,3.77,0,0,0-.25-1.38,3.26,3.26,0,0,0-.68-1.07,2.87,2.87,0,0,0-1-.68,3.12,3.12,0,0,0-1.22-.24,3.09,3.09,0,0,0-1.22.24,2.78,2.78,0,0,0-1,.68,3.41,3.41,0,0,0-.67,1.07,3.77,3.77,0,0,0-.24,1.38,3.61,3.61,0,0,0,.24,1.33A3.53,3.53,0,0,0,9,44.62a3,3,0,0,0,1,.71,2.79,2.79,0,0,0,1.22.26,3.12,3.12,0,0,0,1.22-.24,3,3,0,0,0,1-.68,3.26,3.26,0,0,0,.68-1.07A3.85,3.85,0,0,0,14.4,42.22Z"/><path class="cls-4" d="M31.32,42.22a6.54,6.54,0,0,1-.5,2.59,6.4,6.4,0,0,1-1.35,2.07,6.11,6.11,0,0,1-2,1.38,6.24,6.24,0,0,1-4.94,0,6.38,6.38,0,0,1-3.37-3.45,6.54,6.54,0,0,1-.5-2.59,6.68,6.68,0,0,1,.5-2.62,6.29,6.29,0,0,1,3.37-3.45,6.18,6.18,0,0,1,2.46-.5,6.56,6.56,0,0,1,2.48.47,6,6,0,0,1,2,1.33,6.34,6.34,0,0,1,1.35,2.08A6.86,6.86,0,0,1,31.32,42.22Zm-3.18,0a3.77,3.77,0,0,0-.25-1.38,3.44,3.44,0,0,0-.68-1.07,3,3,0,0,0-1-.68A3.17,3.17,0,0,0,25,38.85a3.12,3.12,0,0,0-1.22.24,2.83,2.83,0,0,0-1,.68,3.09,3.09,0,0,0-.67,1.07,3.77,3.77,0,0,0-.24,1.38,3.61,3.61,0,0,0,.24,1.33,3.18,3.18,0,0,0,.67,1.07,3,3,0,0,0,1,.71,2.82,2.82,0,0,0,1.22.26,3.17,3.17,0,0,0,1.23-.24,3.11,3.11,0,0,0,1-.68,3.44,3.44,0,0,0,.68-1.07A3.85,3.85,0,0,0,28.14,42.22Z"/><path class="cls-2" d="M36.77,2.11a2,2,0,0,1-.17.82,2.28,2.28,0,0,1-.46.67,2.12,2.12,0,0,1-.68.45,2.09,2.09,0,0,1-.83.17,2,2,0,0,1-.82-.17,2.12,2.12,0,0,1-.68-.45,2.08,2.08,0,0,1-.45-.67,2,2,0,0,1-.17-.82A2.14,2.14,0,0,1,33.13.62a2.12,2.12,0,0,1,.68-.45A2,2,0,0,1,34.63,0a2.09,2.09,0,0,1,.83.17,2.12,2.12,0,0,1,.68.45,2.28,2.28,0,0,1,.46.67A2.08,2.08,0,0,1,36.77,2.11Z"/></g></g></svg>