<svg xmlns="http://www.w3.org/2000/svg" width="399" height="175.307" viewBox="0 0 399 175.307">
  <g id="Calque_2" data-name="Calque 2" transform="translate(0.004)">
    <g id="Calque_2-2" data-name="Calque 2" transform="translate(-0.004)">
      <path id="Tracé_1" data-name="Tracé 1" d="M21.376,78.885S5.763,71.93,1.46,61.129,3.708,34.54,3.708,34.54,18.917,40.476,23.642,52.3,21.376,78.885,21.376,78.885Z" transform="translate(0.004 26.12)" fill="#eaac7f"/>
      <path id="Tracé_2" data-name="Tracé 2" d="M24.029,56.636s-3-11.644-.492-21.356H13v12.1a22.076,22.076,0,0,1,2.353,4.355c4.707,11.837-2.248,26.589-2.248,26.589H13V91.971H32.16V53.685a45.662,45.662,0,0,1-8.131,2.95Z" transform="translate(9.837 26.68)" fill="#493323"/>
      <path id="Tracé_3" data-name="Tracé 3" d="M66.374,35.28V61.009L44.861,35.28H36.519a23.656,23.656,0,0,1-2.494,6.533A23.955,23.955,0,0,1,29.16,47.7V91.918H47.776V66.19l21.5,25.729H85.078V35.28Z" transform="translate(22.058 26.68)" fill="#493323"/>
      <path id="Tracé_4" data-name="Tracé 4" d="M66.2,35.282H94.106a38.426,38.426,0,0,1,16.719,3.512,26.343,26.343,0,0,1,11.24,9.835,27.713,27.713,0,0,1,4,15.051A27.7,27.7,0,0,1,122.048,78.7a26.133,26.133,0,0,1-11.24,9.835,38.427,38.427,0,0,1-16.719,3.512H66.2ZM93.3,77.028a13.593,13.593,0,0,0,9.835-3.512,13.066,13.066,0,0,0,3.688-9.905,13.084,13.084,0,0,0-3.688-9.923A13.681,13.681,0,0,0,93.3,50.175H85.29V77.028Z" transform="translate(50.069 26.677)" fill="#493323"/>
      <path id="Tracé_5" data-name="Tracé 5" d="M104.25,35.28h19.09V91.918H104.25Z" transform="translate(78.843 26.68)" fill="#493323"/>
      <path id="Tracé_6" data-name="Tracé 6" d="M158.818,62.67H175.4V86.625a38.936,38.936,0,0,1-11.644,5.269,48.647,48.647,0,0,1-13.031,1.862,34.545,34.545,0,0,1-16.263-3.776,27.977,27.977,0,0,1-11.293-10.537,29.1,29.1,0,0,1-4.074-15.332,29.013,29.013,0,0,1,4.074-15.332,27.907,27.907,0,0,1,11.415-10.537,35.634,35.634,0,0,1,16.544-3.758,38.022,38.022,0,0,1,14.928,2.775,28.2,28.2,0,0,1,10.959,8.131L164.719,56.154a16.228,16.228,0,0,0-12.7-6.235,13.418,13.418,0,0,0-10.028,3.811,14.19,14.19,0,0,0-3.723,10.362,14.331,14.331,0,0,0,3.688,10.274,12.891,12.891,0,0,0,9.817,3.881A17.773,17.773,0,0,0,158.8,76.86Z" transform="translate(90.064 26.072)" fill="#493323"/>
      <path id="Tracé_7" data-name="Tracé 7" d="M155.8,35.28h19.09V77.113h25.571V91.918H155.8Z" transform="translate(117.827 26.68)" fill="#493323"/>
      <path id="Tracé_8" data-name="Tracé 8" d="M238.9,35.29H220.127V65.866q0,6.217-2.23,9.062a8.781,8.781,0,0,1-12.856,0q-2.248-2.845-2.23-9.062V35.29H183.72v31.1q0,12.7,7.288,19.74a25.975,25.975,0,0,0,16.228,6.849,21.549,21.549,0,0,1,2.511-7.411c5.673-9.888,19.916-13.242,19.916-13.242a50.073,50.073,0,0,1,1.247,14.454l.7-.65a22.831,22.831,0,0,0,6.164-10.66,2.814,2.814,0,0,1-.176-.4c-3.512-8.974-.421-19.635,1.3-24.254Z" transform="translate(138.941 26.687)" fill="#493323"/>
      <path id="Tracé_9" data-name="Tracé 9" d="M20.583,62.2s-3.811-14.84,1.352-23.867,19.9-13.242,19.9-13.242,4.32,14.05-1.352,23.867S20.583,62.2,20.583,62.2Z" transform="translate(14.548 18.974)" fill="#eaac7f"/>
      <path id="Tracé_10" data-name="Tracé 10" d="M22.74,55.254s-14.05-6.27-17.949-16S6.828,15.3,6.828,15.3s13.7,5.269,17.949,16S22.74,55.254,22.74,55.254Z" transform="translate(2.626 11.57)" fill="#eaac7f"/>
      <path id="Tracé_11" data-name="Tracé 11" d="M20.989,46.487s-6.322-17.106-1.264-28.416S41.695,0,41.695,0s6.8,16.034,1.264,28.416S20.989,46.487,20.989,46.487Z" transform="translate(13.44)" fill="#eaac7f"/>
      <path id="Tracé_12" data-name="Tracé 12" d="M217.682,44s14.05,6.287,18,16.034-2.037,24.043-2.037,24.043-13.751-5.269-18-16.052S217.682,44,217.682,44Z" transform="translate(161.968 33.274)" fill="#eaac7f"/>
      <path id="Tracé_13" data-name="Tracé 13" d="M217.821,57.67s3.354,13.049-1.194,21.075-17.562,11.644-17.562,11.644-3.793-12.294,1.194-21.075S217.821,57.67,217.821,57.67Z" transform="translate(149.5 43.612)" fill="#eaac7f"/>
      <path id="Tracé_14" data-name="Tracé 14" d="M214.817,63.18s14.559,6.48,18.563,16.544-2.09,24.78-2.09,24.78-14.173-5.532-18.563-16.544S214.817,63.18,214.817,63.18Z" transform="translate(159.723 47.778)" fill="#eaac7f"/>
      <path id="Tracé_15" data-name="Tracé 15" d="M218.653,75s5.9,16.052,1.177,26.66-20.618,16.93-20.618,16.93-6.358-15.033-1.177-26.66S218.653,75,218.653,75Z" transform="translate(148.229 56.717)" fill="#eaac7f"/>
    </g>
  </g>
</svg>
